<svg xmlns="http://www.w3.org/2000/svg" xmlns:xlink="http://www.w3.org/1999/xlink" width="73" height="73" viewBox="0 0 73 73">
  <defs>
    <filter id="Elipse_21" x="0" y="0" width="73" height="73" filterUnits="userSpaceOnUse">
      <feOffset dy="3" input="SourceAlpha"/>
      <feGaussianBlur stdDeviation="3" result="blur"/>
      <feFlood flood-opacity="0.161"/>
      <feComposite operator="in" in2="blur"/>
      <feComposite in="SourceGraphic"/>
    </filter>
  </defs>
  <g id="BTN_LLAMAR" transform="translate(8.681 6.365)">
    <g id="Grupo_2230" data-name="Grupo 2230">
      <g transform="matrix(1, 0, 0, 1, -8.68, -6.36)" filter="url(#Elipse_21)">
        <g id="Elipse_21-2" data-name="Elipse 21" transform="translate(9 6)" fill="#fff" stroke="#115aff" stroke-width="1">
          <circle cx="27.5" cy="27.5" r="27.5" stroke="none"/>
          <circle cx="27.5" cy="27.5" r="27" fill="none"/>
        </g>
      </g>
      <g id="Grupo_2237" data-name="Grupo 2237" transform="translate(18.328 9.136)">
        <path id="Trazado_3143" data-name="Trazado 3143" d="M162.359,157.412h-4.071a1.847,1.847,0,0,1-1.975-1.679V136.3a1.847,1.847,0,0,1,1.975-1.679h9.783a1.847,1.847,0,0,1,1.974,1.679v17.5a1.672,1.672,0,0,1,.6-.12,1.586,1.586,0,0,1,.386.055V136.3a2.828,2.828,0,0,0-2.961-2.666h-9.783a2.829,2.829,0,0,0-2.962,2.666v19.429a2.829,2.829,0,0,0,2.962,2.666h4.071Z" transform="translate(-155.327 -133.638)" fill="#115aff"/>
        <path id="Trazado_3144" data-name="Trazado 3144" d="M160.254,139.558H170.1v15.378a1.274,1.274,0,0,1,.292-.034h.222a1.272,1.272,0,0,1,.473.1V139.064a.493.493,0,0,0-.493-.493H159.76a.493.493,0,0,0-.493.493v18.69a.493.493,0,0,0,.493.493h4.6v-.987h-4.1Z" transform="translate(-157.323 -136.138)" fill="#115aff"/>
        <path id="Trazado_3145" data-name="Trazado 3145" d="M168.828,154.58a11.023,11.023,0,0,0,2.054-2.476,2.6,2.6,0,0,0-.156-2.413,5.729,5.729,0,0,0-1.013-1.132h0a.623.623,0,0,0-.861,0l-1.747,1.724a.611.611,0,0,0,.009.86h0l.024.022c.054.059.172.184.415.425a2.341,2.341,0,0,0,.3.253c-.239.258-.566.587-.866.871-.283.29-.615.612-.868.844a2.253,2.253,0,0,0-.248-.3c-.28-.292-.39-.4-.432-.437l-.015-.016a.62.62,0,0,0-.863-.006l-1.736,1.714a.61.61,0,0,0-.184.432.6.6,0,0,0,.157.411,5.876,5.876,0,0,0,1.139,1.051c.08.05.158.095.236.134a2.468,2.468,0,0,0,1.109.258,2.832,2.832,0,0,0,.784-.127v-.5a1.376,1.376,0,0,1,.155-.625,1.555,1.555,0,0,1-.238.126,1.669,1.669,0,0,1-1.372-.016c-.051-.025-.1-.054-.145-.082a4.1,4.1,0,0,1-.7-.61l1.217-1.2.171.177a.8.8,0,0,1,.236.368.493.493,0,0,0,.631.511c.1-.03.405-.119,1.654-1.4,1.313-1.245,1.406-1.55,1.436-1.65a.494.494,0,0,0-.108-.477.5.5,0,0,0-.406-.159.812.812,0,0,1-.353-.24l-.175-.175,1.217-1.2a4.135,4.135,0,0,1,.6.7,1.642,1.642,0,0,1,.079,1.519,10.215,10.215,0,0,1-1.833,2.146c-.252.26-.606.6-.965.919a1.419,1.419,0,0,1,.319-.038h.366a1.425,1.425,0,0,1,.639.156C168.668,154.744,168.79,154.619,168.828,154.58Z" transform="translate(-159.032 -141.11)" fill="#115aff"/>
        <path id="Trazado_3146" data-name="Trazado 3146" d="M185.148,174.392l-.016.008a1.735,1.735,0,0,1,.017.19v1.01a.724.724,0,0,1,.6-.342c.3,0,.623.246.623.419v9.648h.987v-9.648a1.513,1.513,0,0,0-1.223-1.35,1.588,1.588,0,0,0-.386-.055A1.672,1.672,0,0,0,185.148,174.392Z" transform="translate(-170.429 -154.227)" fill="#115aff"/>
        <path id="Trazado_3147" data-name="Trazado 3147" d="M170.57,178.756V162.711a.428.428,0,0,1,.438-.418h.366a.429.429,0,0,1,.438.418v4.428a1.748,1.748,0,0,1,.987-1.4v-3.027a1.4,1.4,0,0,0-.785-1.249,1.426,1.426,0,0,0-.639-.156h-.366a1.442,1.442,0,0,0-1.269.78,1.376,1.376,0,0,0-.155.624v16.045Z" transform="translate(-162.551 -147.657)" fill="#115aff"/>
        <path id="Trazado_3148" data-name="Trazado 3148" d="M181.874,171.772a1.271,1.271,0,0,0-.473-.1h-.222a1.275,1.275,0,0,0-.292.034,1.3,1.3,0,0,0-.331.132,1.951,1.951,0,0,1,.18.81v.617c0-.33.2-.607.443-.607h.222c.24,0,.443.281.443.613v3.993a.493.493,0,1,0,.987,0v-3.993a1.731,1.731,0,0,0-.017-.19A1.566,1.566,0,0,0,181.874,171.772Z" transform="translate(-168.111 -152.911)" fill="#115aff"/>
        <path id="Trazado_3149" data-name="Trazado 3149" d="M179.908,181.606v-.2a.493.493,0,0,1-.987,0v-.127h0v.324a.493.493,0,1,0,.987,0Z" transform="translate(-167.282 -157.779)" fill="#115aff"/>
        <path id="Trazado_3150" data-name="Trazado 3150" d="M174.052,176.244a.493.493,0,1,0,.987,0v-4.419c0-.431.266-.8.581-.8h.254c.315,0,.581.364.581.8v3.889a.493.493,0,0,0,.987,0h0v-3.889a1.952,1.952,0,0,0-.18-.81,1.557,1.557,0,0,0-1.388-.971h-.254a1.386,1.386,0,0,0-.557.122,1.748,1.748,0,0,0-.987,1.4,1.945,1.945,0,0,0-.023.259Z" transform="translate(-164.815 -152.084)" fill="#115aff"/>
        <path id="Trazado_3151" data-name="Trazado 3151" d="M178.954,196.68h-11.3a.493.493,0,0,0-.493.493v4.572a.493.493,0,0,0,.493.493h11.3a.493.493,0,0,0,.493-.493v-4.572A.493.493,0,0,0,178.954,196.68Zm-.493,4.572H168.15v-3.585h10.311Z" transform="translate(-161.324 -165.581)" fill="#115aff"/>
        <path id="Trazado_3152" data-name="Trazado 3152" d="M167.522,151.014a2.756,2.756,0,0,0-1.765,1.765.493.493,0,1,0,.939.3,1.766,1.766,0,0,1,1.132-1.131.493.493,0,0,0-.306-.938Z" transform="translate(-160.6 -142.43)" fill="#115aff"/>
        <path id="Trazado_3153" data-name="Trazado 3153" d="M165.673,149.048a.494.494,0,0,0-.305-.939,3.927,3.927,0,0,0-2.514,2.515.493.493,0,1,0,.938.3A2.938,2.938,0,0,1,165.673,149.048Z" transform="translate(-159.128 -140.958)" fill="#115aff"/>
      </g>
    </g>
  </g>
</svg>
