<svg xmlns="http://www.w3.org/2000/svg" width="110.554" height="63.262" viewBox="0 0 110.554 63.262">
  <g id="TRA_ESP_ICON_2" transform="translate(-896.986 -645.375)">
    <g id="Grupo_2267" data-name="Grupo 2267" transform="translate(948.667 662.259)">
      <g id="Grupo_2261" data-name="Grupo 2261" transform="translate(14.532 11.11)">
        <path id="Trazado_3212" data-name="Trazado 3212" d="M983.612,684.529h-.122a1.636,1.636,0,1,1,0-3.273h.122a1.636,1.636,0,1,1,0,3.273Z" transform="translate(-981.853 -681.256)" fill="#fff"/>
      </g>
      <g id="Grupo_2262" data-name="Grupo 2262" transform="translate(5.772 11.094)">
        <path id="Trazado_3213" data-name="Trazado 3213" d="M972.269,684.509h-.007a1.637,1.637,0,1,1,.007,0Z" transform="translate(-970.625 -681.235)" fill="#fff"/>
      </g>
      <g id="Grupo_2263" data-name="Grupo 2263" transform="translate(5.772 11.094)">
        <path id="Trazado_3214" data-name="Trazado 3214" d="M972.269,684.509h-.007a1.637,1.637,0,1,1,.007,0Z" transform="translate(-970.625 -681.235)" fill="#fff"/>
      </g>
      <g id="Grupo_2264" data-name="Grupo 2264" transform="translate(16.087 20.353)">
        <path id="Trazado_3215" data-name="Trazado 3215" d="M985.781,696.376h-.3a1.636,1.636,0,1,1,0-3.273h.3a1.636,1.636,0,1,1,0,3.273Z" transform="translate(-983.846 -693.103)" fill="#fff"/>
      </g>
      <g id="Grupo_2265" data-name="Grupo 2265" transform="translate(5.784 11.094)">
        <path id="Trazado_3216" data-name="Trazado 3216" d="M981.023,684.519H972.5a3.169,3.169,0,0,1-.455-.026,1.637,1.637,0,0,1,.228-3.257h0l8.747.011a1.636,1.636,0,0,1,0,3.273Z" transform="translate(-970.641 -681.235)" fill="#fff"/>
      </g>
      <path id="Trazado_3217" data-name="Trazado 3217" d="M1020.065,672.651l-17.083-.021a2.03,2.03,0,0,0-2.022,1.9c-3.437-1.216-8.711-3.26-10.5-4.694-.16-.133-.32-.254-.419-.324-2.171-1.7-3.841-2.49-5.254-2.49a3.119,3.119,0,0,0-1.606.413,2.984,2.984,0,0,0-.681.525,3.663,3.663,0,0,0-1.379,2.878,3.538,3.538,0,0,0,.914,2.681l-10.619-.02a3.924,3.924,0,0,0-3.909,3.962,6.281,6.281,0,0,0,.033.645h-.385a3.927,3.927,0,0,0-3.929,3.97,3.51,3.51,0,0,0,1.01,2.391,5.219,5.219,0,0,0,2.328,1.358,4.107,4.107,0,0,0,.371,1.709,6.1,6.1,0,0,0,2.7,2.328,7.811,7.811,0,0,0,3.172.857l.476,0a3.536,3.536,0,0,0,.436,1.425,1.723,1.723,0,0,0,.145.214,8.571,8.571,0,0,0,2.48,2.049,6.39,6.39,0,0,0,2.969.889h8.791a1.408,1.408,0,0,0,.151-.008s.366-.033.984-.113a33.4,33.4,0,0,0,6.619-1.489,19.964,19.964,0,0,1,5.067-1.118,2.03,2.03,0,0,0,2.009,1.9l17.082.011a2.043,2.043,0,0,0,2.047-2.033l.033-17.734A2.044,2.044,0,0,0,1020.065,672.651ZM994.753,690.6a30.714,30.714,0,0,1-5.927,1.323c-.4.052-.676.081-.8.094h-8.709a3.226,3.226,0,0,1-1.375-.473,5.747,5.747,0,0,1-1.171-.859l4.133-.043c.016,0,.031,0,.047,0l2.5.008h.005a1.637,1.637,0,0,0,.005-3.274l-2.454-.007c-.019,0-.036-.005-.055-.005h-4.865a2.9,2.9,0,0,0-.591.055l-2.7.02a4.849,4.849,0,0,1-1.726-.527,4.2,4.2,0,0,1-1.186-.8c-.017-.041-.03-.076-.04-.108l9.7.012c.011,0,.02,0,.031,0l3.736.008h0a1.636,1.636,0,0,0,0-3.273l-3.708-.008c-.011,0-.021,0-.031,0l-11.821-.033a1.874,1.874,0,0,1-1.152-.509.332.332,0,0,1-.108-.189.656.656,0,0,1,.161-.42.649.649,0,0,1,.489-.225l3.412.011c.1.009.207.01.311.01h8.469c.017,0,.034.005.052.005l4.079.008h0a1.637,1.637,0,0,0,0-3.274l-4.032-.007c-.018,0-.035-.005-.053-.005l-8.527-.011a2.212,2.212,0,0,1-.087-.709.64.64,0,0,1,.652-.634l15.088.034h.006a1.637,1.637,0,0,0,.885-3.013,16.209,16.209,0,0,1-2.306-1.743,3.281,3.281,0,0,1-.714-.893,1.766,1.766,0,0,0-.014-.408,3.452,3.452,0,0,1,.411-.453c.158,0,1.053.087,3.287,1.833.09.066.191.139.312.24,2.61,2.1,9.685,4.643,12.546,5.621l-.02,11.289A23.215,23.215,0,0,0,994.753,690.6Zm24.043.595-14.61-.009v-.329l.023-14.046V676.8l.005-.9,14.611.02Z" transform="translate(-963.227 -667.016)" fill="#fff"/>
      <g id="Grupo_2266" data-name="Grupo 2266" transform="translate(21.67 6.507)">
        <path id="Trazado_3218" data-name="Trazado 3218" d="M992.646,678.63h-.007a1.636,1.636,0,1,1,.007,0Z" transform="translate(-991.002 -675.356)" fill="#fff"/>
      </g>
    </g>
    <g id="Grupo_2273" data-name="Grupo 2273" transform="translate(896.986 675.258)">
      <g id="Grupo_2268" data-name="Grupo 2268" transform="translate(40.948 11.109)">
        <path id="Trazado_3219" data-name="Trazado 3219" d="M951.23,701.189h-.123a1.637,1.637,0,0,1,0-3.274h.123a1.637,1.637,0,0,1,0,3.274Z" transform="translate(-949.471 -697.915)" fill="#fff"/>
      </g>
      <g id="Grupo_2269" data-name="Grupo 2269" transform="translate(49.824 11.094)">
        <path id="Trazado_3220" data-name="Trazado 3220" d="M962.491,701.17h-.007a1.637,1.637,0,1,1,.007,0Z" transform="translate(-960.847 -697.896)" fill="#fff"/>
      </g>
      <g id="Grupo_2270" data-name="Grupo 2270" transform="translate(49.824 11.094)">
        <path id="Trazado_3221" data-name="Trazado 3221" d="M962.491,701.17h-.007a1.637,1.637,0,1,1,.007,0Z" transform="translate(-960.847 -697.896)" fill="#fff"/>
      </g>
      <g id="Grupo_2271" data-name="Grupo 2271" transform="translate(39.218 20.352)">
        <path id="Trazado_3222" data-name="Trazado 3222" d="M949.189,713.036h-.3a1.637,1.637,0,0,1,0-3.274h.3a1.637,1.637,0,0,1,0,3.274Z" transform="translate(-947.253 -709.762)" fill="#fff"/>
      </g>
      <path id="Trazado_3223" data-name="Trazado 3223" d="M955.011,696.25a1.49,1.49,0,0,0-.109-.142,3.922,3.922,0,0,0-2.966-1.341h-.4a6.412,6.412,0,0,0,.037-.7,3.923,3.923,0,0,0-3.921-3.918l-10.6.019a3.527,3.527,0,0,0,.911-2.683,3.765,3.765,0,0,0-1.415-2.911,2.767,2.767,0,0,0-.6-.453c-1.611-.962-3.762-.4-6.941,2.055-.132.1-.264.2-.374.293-1.622,1.308-6.187,3.178-10.511,4.708a2.036,2.036,0,0,0-2.022-1.891l-17.077.023a2.046,2.046,0,0,0-2.043,2.046l.038,17.733a2.04,2.04,0,0,0,2.043,2.034l17.078-.015a2.034,2.034,0,0,0,2.02-1.893,19.926,19.926,0,0,1,5.065,1.119,33.491,33.491,0,0,0,6.614,1.487c.621.081.99.114.99.114a1.39,1.39,0,0,0,.15.008h8.789a6.519,6.519,0,0,0,2.969-.877,8.426,8.426,0,0,0,2.49-2.07,1.722,1.722,0,0,0,.137-.205,3.531,3.531,0,0,0,.435-1.424l.487,0a8.12,8.12,0,0,0,3.161-.857,5.974,5.974,0,0,0,2.75-2.415,3.835,3.835,0,0,0,.331-1.613,5.046,5.046,0,0,0,2.306-1.363,3.491,3.491,0,0,0,1.024-2.468A3.96,3.96,0,0,0,955.011,696.25Zm-54.717,11.6-.033-15.267,14.612-.019,0,.86c0,.015,0,.029,0,.043l.032,14.043c0,.011,0,.021,0,.031v.3Zm52.172-8.982a1.788,1.788,0,0,1-1.14.516l-11.775.033c-.014,0-.027,0-.041,0h0l-3.739.007a1.636,1.636,0,0,0,0,3.273h0l3.7-.007c.014,0,.027,0,.041,0h0l9.74-.019-.006.019a3.181,3.181,0,0,1-1.226.879,4.907,4.907,0,0,1-1.72.528l-2.706-.02a2.93,2.93,0,0,0-.594-.055l-4.843.011-.02,0-2.509.008a1.636,1.636,0,0,0,0,3.273h.005l2.469-.007.018,0,4.2.035a5.609,5.609,0,0,1-1.163.859,3.4,3.4,0,0,1-1.391.471h-8.709c-.124-.013-.4-.043-.8-.1a30.779,30.779,0,0,1-5.922-1.321,23.212,23.212,0,0,0-6.165-1.325l-.023-10.327c0-.022.006-.043.006-.065l0-.9c3.565-1.228,10.084-3.64,12.561-5.637.091-.076.184-.144.341-.264,2.134-1.652,3.018-1.78,3.246-1.783.146.146.367.367.394.408a1.566,1.566,0,0,0,0,.46,3.3,3.3,0,0,1-.692.863,15.043,15.043,0,0,1-2.318,1.751,1.636,1.636,0,0,0,.869,3.022h.006l15.1-.033a.659.659,0,0,1,.644.7,2.024,2.024,0,0,1-.083.645l-8.5.02-.02,0-4.085.008a1.636,1.636,0,0,0,0,3.273h0l4.062-.007.021,0h8.518a2.95,2.95,0,0,0,.331-.021h3.388a.663.663,0,0,1,.442.161c.02.026.041.052.064.078a.688.688,0,0,1,.153.416A.528.528,0,0,1,952.466,698.866Z" transform="translate(-896.986 -683.676)" fill="#fff"/>
      <g id="Grupo_2272" data-name="Grupo 2272" transform="translate(33.926 6.507)">
        <path id="Trazado_3224" data-name="Trazado 3224" d="M942.115,695.289h-.009a1.636,1.636,0,1,1,.009,0Z" transform="translate(-940.47 -692.016)" fill="#fff"/>
      </g>
    </g>
    <g id="Grupo_2274" data-name="Grupo 2274" transform="translate(928.418 690.999)">
      <path id="Trazado_3225" data-name="Trazado 3225" d="M983.331,721.491H938.91a1.637,1.637,0,0,1-1.637-1.637v-1.12a1.637,1.637,0,0,1,3.19-.516h41.232V705.49a1.636,1.636,0,1,1,3.273,0v14.364A1.637,1.637,0,0,1,983.331,721.491Z" transform="translate(-937.273 -703.853)" fill="#fff"/>
    </g>
    <path id="Trazado_3226" data-name="Trazado 3226" d="M984.989,655.253a1.631,1.631,0,0,0-.65-1.306l-8.105-8.087a1.63,1.63,0,0,0-.356-.264c-.03-.017-.059-.034-.089-.048a1.606,1.606,0,0,0-.392-.14c-.02,0-.04,0-.059-.006a1.662,1.662,0,0,0-.266-.026H938.91a1.638,1.638,0,0,0-1.637,1.637v27.445a1.637,1.637,0,0,0,3.274,0V648.648h32.885v6.605a1.637,1.637,0,0,0,1.637,1.636h6.626v4.338a1.636,1.636,0,1,0,3.273,0v-5.763A1.582,1.582,0,0,0,984.989,655.253Zm-8.284-1.637v-2.663l2.669,2.663Z" transform="translate(-8.855)" fill="#fff"/>
    <g id="Grupo_2275" data-name="Grupo 2275" transform="translate(936.503 654.545)">
      <path id="Trazado_3227" data-name="Trazado 3227" d="M965.362,660.4H949.273a1.636,1.636,0,1,1,0-3.273h16.089a1.636,1.636,0,1,1,0,3.273Z" transform="translate(-947.636 -657.129)" fill="#fff"/>
    </g>
    <g id="Grupo_2276" data-name="Grupo 2276" transform="translate(936.503 659.59)">
      <path id="Trazado_3228" data-name="Trazado 3228" d="M970.489,666.869H949.273a1.637,1.637,0,1,1,0-3.274h21.217a1.637,1.637,0,0,1,0,3.274Z" transform="translate(-947.636 -663.595)" fill="#fff"/>
    </g>
    <g id="Grupo_2277" data-name="Grupo 2277" transform="translate(936.503 664.815)">
      <path id="Trazado_3229" data-name="Trazado 3229" d="M964.8,673.566H949.273a1.637,1.637,0,1,1,0-3.274H964.8a1.637,1.637,0,0,1,0,3.274Z" transform="translate(-947.636 -670.292)" fill="#fff"/>
    </g>
    <g id="Grupo_2278" data-name="Grupo 2278" transform="translate(936.503 669.861)">
      <path id="Trazado_3230" data-name="Trazado 3230" d="M959.88,680.032H949.273a1.636,1.636,0,1,1,0-3.273H959.88a1.636,1.636,0,0,1,0,3.273Z" transform="translate(-947.636 -676.759)" fill="#fff"/>
    </g>
  </g>
</svg>
