<svg xmlns="http://www.w3.org/2000/svg" width="67.984" height="63.156" viewBox="0 0 67.984 63.156">
  <g id="INMO_ICON" transform="translate(-2909.245 -786.617)">
    <path id="Trazado_3162" data-name="Trazado 3162" d="M2973.992,811l-28.124-21.824a4.291,4.291,0,0,0-5.26,0L2912.483,811a4.29,4.29,0,0,0,2.63,7.679h.148V842.6c0,3.135,3.308,5.677,7.389,5.677h41.173c4.081,0,7.39-2.542,7.39-5.677V818.682h.148A4.29,4.29,0,0,0,2973.992,811Z" transform="translate(0 0)" fill="none" stroke="#7339ee" stroke-linecap="round" stroke-linejoin="round" stroke-width="3"/>
    <path id="Rect치ngulo_199" data-name="Rect치ngulo 199" d="M5.749,0h0A5.749,5.749,0,0,1,11.5,5.749v15.9a0,0,0,0,1,0,0H0a0,0,0,0,1,0,0V5.749A5.749,5.749,0,0,1,5.749,0Z" transform="translate(2926.725 826.622)" fill="none" stroke="#7339ee" stroke-linecap="round" stroke-linejoin="round" stroke-width="3"/>
    <rect id="Rect치ngulo_200" data-name="Rect치ngulo 200" width="14.09" height="10.825" rx="3.776" transform="translate(2948.429 826.622)" fill="none" stroke="#7339ee" stroke-linecap="round" stroke-linejoin="round" stroke-width="3"/>
  </g>
</svg>
