<svg width="100" height="100" viewBox="0 0 100 100" fill="none" xmlns="http://www.w3.org/2000/svg">
<path d="M63.3333 68.3322V81.6656C63.3333 86.2622 59.5967 89.9989 55 89.9989H18.3333C16.124 89.9962 14.0059 89.1174 12.4437 87.5552C10.8815 85.993 10.0026 83.8749 10 81.6656L10 27.7356C10.0078 24.2701 11.2118 20.9136 13.4086 18.2334C15.6054 15.5532 18.6602 13.7136 22.0567 13.0256L36.0433 10.2289C38.5939 9.71751 41.2421 10.0732 43.5673 11.2394C45.8926 12.4057 47.7613 14.3155 48.8767 16.6656H51.6667C58.1 16.6656 63.3333 21.8989 63.3333 28.3322V48.3322C63.3333 48.7743 63.1577 49.1982 62.8452 49.5107C62.5326 49.8233 62.1087 49.9989 61.6667 49.9989C61.2246 49.9989 60.8007 49.8233 60.4882 49.5107C60.1756 49.1982 60 48.7743 60 48.3322V28.3322C60 23.7356 56.2633 19.9989 51.6667 19.9989H49.8167C49.8967 20.5522 50 21.0989 50 21.6689V86.6656H55C57.7567 86.6656 60 84.4222 60 81.6656V68.3322C60 67.8902 60.1756 67.4663 60.4882 67.1537C60.8007 66.8412 61.2246 66.6656 61.6667 66.6656C62.1087 66.6656 62.5326 66.8412 62.8452 67.1537C63.1577 67.4663 63.3333 67.8902 63.3333 68.3322ZM46.6667 21.6689C46.6688 20.4358 46.3962 19.2177 45.8686 18.1031C45.3411 16.9885 44.5718 16.0055 43.6167 15.2256C42.6642 14.4413 41.5488 13.8794 40.3517 13.5807C39.1546 13.282 37.9059 13.2541 36.6967 13.4989L22.71 16.2956C20.068 16.8308 17.6919 18.262 15.9834 20.3471C14.2749 22.4322 13.3388 25.0432 13.3333 27.7389V81.6689C13.3333 84.4256 15.5767 86.6689 18.3333 86.6689H46.6667V21.6689ZM90 58.3322C90 56.6656 89.0767 54.4856 87.7433 53.2389L79.4233 45.4489C79.1007 45.1465 78.6711 44.9848 78.2291 44.9991C77.7872 45.0135 77.369 45.2029 77.0667 45.5256C76.7643 45.8482 76.6025 46.2778 76.6169 46.7198C76.6313 47.1617 76.8207 47.5799 77.1433 47.8822L85.4633 55.6722C85.7733 55.9622 85.99 56.3089 86.1767 56.6656H58.33C57.888 56.6656 57.464 56.8412 57.1515 57.1537C56.8389 57.4663 56.6633 57.8902 56.6633 58.3322C56.6633 58.7743 56.8389 59.1982 57.1515 59.5107C57.464 59.8233 57.888 59.9989 58.33 59.9989H86.08C85.9067 60.2922 85.7433 60.5956 85.4833 60.8422L77.13 68.7922C76.8268 69.1006 76.6553 69.5147 76.6518 69.9471C76.6483 70.3796 76.813 70.7964 77.1111 71.1097C77.4092 71.423 77.8174 71.6081 78.2495 71.626C78.6816 71.6439 79.1037 71.4931 79.4267 71.2056L87.78 63.2556C89.02 62.0756 89.9933 59.9956 89.9933 58.3289L90 58.3322Z" fill="black"/>
</svg>
