<svg xmlns="http://www.w3.org/2000/svg" width="38.003" height="43.594" viewBox="0 0 38.003 43.594">
  <g id="MIS_TRA_ICON" transform="translate(-384.063 -71.342)">
    <path id="Trazado_3163" data-name="Trazado 3163" d="M400.3,114.936h-14a.717.717,0,0,1-.717-.717v-2.992a.717.717,0,0,1,.717-.717h14a.717.717,0,0,1,.717.717v2.992A.717.717,0,0,1,400.3,114.936ZM387.018,113.5h12.565v-1.56H387.018Z" fill="#fff"/>
    <path id="Trazado_3164" data-name="Trazado 3164" d="M399.085,111.943H387.516a.717.717,0,0,1-.716-.716v-1.964l-2.028-16.341a7.306,7.306,0,0,1,1.407-5.335l4.584-5.828a.717.717,0,0,1,1.28.444v7.809a.721.721,0,0,1-.1.357,1.735,1.735,0,0,0,0,1.792l4.364,5.441-.033-5.24a3.055,3.055,0,0,1,3.153-3.09,3.255,3.255,0,0,1,3.146,3.208L402.643,103a6.5,6.5,0,0,1-1.006,3.532l-1.836,2.9v1.8A.717.717,0,0,1,399.085,111.943Zm-10.852-1.433h10.135v-1.291a.724.724,0,0,1,.111-.384l1.948-3.073a5.074,5.074,0,0,0,.782-2.756l-.066-10.517a1.811,1.811,0,0,0-1.749-1.785,1.625,1.625,0,0,0-1.683,1.649l.036,5.6a1.285,1.285,0,0,1-.862,1.234,1.317,1.317,0,0,1-1.484-.428l-4.572-5.7a3.117,3.117,0,0,1-.22-3.223V84.273l-3.3,4.189a5.879,5.879,0,0,0-1.12,4.283l2.034,16.386a.868.868,0,0,1,.005.088Z" fill="#fff"/>
    <path id="Trazado_3165" data-name="Trazado 3165" d="M418.237,106.232H416.23a.716.716,0,1,1,0-1.433h1.291V72.775H392.049V82.2a.717.717,0,0,1-1.433,0V72.058a.717.717,0,0,1,.717-.716h26.9a.717.717,0,0,1,.717.716v33.457A.717.717,0,0,1,418.237,106.232Z" fill="#fff"/>
    <path id="Trazado_3166" data-name="Trazado 3166" d="M421.35,109.426h-5.366a.717.717,0,1,1,0-1.433h4.649V75.969h-2.4a.716.716,0,0,1,0-1.433h3.113a.716.716,0,0,1,.716.716V108.71A.716.716,0,0,1,421.35,109.426Z" fill="#fff"/>
    <path id="Trazado_3167" data-name="Trazado 3167" d="M412.525,77.279H397.046a.717.717,0,0,1,0-1.434h15.479a.717.717,0,1,1,0,1.434Z" fill="#fff"/>
    <path id="Trazado_3168" data-name="Trazado 3168" d="M414.47,81.006H395.1a.716.716,0,1,1,0-1.433h19.37a.716.716,0,1,1,0,1.433Z" fill="#fff"/>
    <path id="Trazado_3169" data-name="Trazado 3169" d="M414.47,84.448H395.1a.716.716,0,1,1,0-1.433h19.37a.716.716,0,1,1,0,1.433Z" fill="#fff"/>
    <path id="Trazado_3170" data-name="Trazado 3170" d="M414.47,88.176H395.1a.717.717,0,1,1,0-1.433h19.37a.717.717,0,1,1,0,1.433Z" fill="#fff"/>
    <path id="Trazado_3171" data-name="Trazado 3171" d="M421.35,114.936H384.779a.716.716,0,0,1,0-1.433H421.35a.716.716,0,0,1,0,1.433Z" fill="#fff"/>
    <path id="Trazado_3172" data-name="Trazado 3172" d="M410.013,103.863a5.3,5.3,0,1,1,5.3-5.3A5.309,5.309,0,0,1,410.013,103.863Zm0-9.173a3.87,3.87,0,1,0,3.87,3.87A3.874,3.874,0,0,0,410.013,94.69Z" fill="#fff"/>
    <path id="Trazado_3173" data-name="Trazado 3173" d="M406.881,109.426a.717.717,0,0,1-.717-.716V101.9a.717.717,0,0,1,1.207-.523,3.851,3.851,0,0,0,5.286,0,.717.717,0,0,1,1.206.523v6.807a.717.717,0,0,1-1.061.628l-2.789-1.531-2.787,1.531A.717.717,0,0,1,406.881,109.426Zm3.132-3.153a.714.714,0,0,1,.345.088l2.072,1.138v-4.221a5.38,5.38,0,0,1-4.832,0V107.5l2.071-1.138A.713.713,0,0,1,410.013,106.273Z" fill="#fff"/>
  </g>
</svg>
