<svg xmlns="http://www.w3.org/2000/svg" width="39" height="39" viewBox="0 0 39 39">
  <g id="SETTINGS_ICON" transform="translate(-138 -226)">
    <path id="Trazado_3194" data-name="Trazado 3194" d="M176,248.717v-6.435l-4.022-.8a12.956,12.956,0,0,0-1.609-3.217l2.413-3.217-4.826-4.826-3.217,2.413a12.956,12.956,0,0,0-3.217-1.609l-.8-4.022h-6.435l-.8,4.022a12.956,12.956,0,0,0-3.217,1.609l-3.217-2.413-4.826,4.826,2.413,3.217a17.2,17.2,0,0,0-1.609,3.217l-4.022.8v6.435l4.022.8a15.249,15.249,0,0,0,1.609,3.217l-2.413,3.217,4.826,4.826,3.217-2.413a10.576,10.576,0,0,0,3.217,1.609l.8,4.022h6.435l.8-4.022a12.929,12.929,0,0,0,3.217-1.609l3.217,2.413,4.826-4.826-2.413-3.217a12.956,12.956,0,0,0,1.609-3.217Z" fill="none" stroke="#878787" stroke-linecap="round" stroke-linejoin="round" stroke-width="2"/>
    <circle id="Elipse_25" data-name="Elipse 25" cx="7.048" cy="7.048" r="7.048" transform="translate(150.452 238.452)" fill="none" stroke="#878787" stroke-linecap="round" stroke-linejoin="round" stroke-width="2"/>
  </g>
</svg>
