<svg xmlns="http://www.w3.org/2000/svg" xmlns:xlink="http://www.w3.org/1999/xlink" width="134" height="134" viewBox="0 0 134 134">
  <defs>
    <linearGradient id="linear-gradient" x1="-0.514" y1="2.397" x2="-0.322" y2="2.397" gradientUnits="objectBoundingBox">
      <stop offset="0" stop-color="#8649ee"/>
      <stop offset="1" stop-color="#8844ef"/>
    </linearGradient>
    <filter id="Elipse_89" x="0" y="0" width="134" height="134" filterUnits="userSpaceOnUse">
      <feOffset dy="3" input="SourceAlpha"/>
      <feGaussianBlur stdDeviation="3" result="blur"/>
      <feFlood flood-opacity="0.161"/>
      <feComposite operator="in" in2="blur"/>
      <feComposite in="SourceGraphic"/>
    </filter>
    <clipPath id="clip-path">
      <circle id="Elipse_90" data-name="Elipse 90" cx="58" cy="58" r="58" transform="translate(0.281)" fill="#fff" stroke="#707070" stroke-width="1"/>
    </clipPath>
    <filter id="Elipse_91" x="0" y="0" width="134" height="134" filterUnits="userSpaceOnUse">
      <feOffset dy="3" input="SourceAlpha"/>
      <feGaussianBlur stdDeviation="3" result="blur-2"/>
      <feFlood flood-opacity="0.161"/>
      <feComposite operator="in" in2="blur-2"/>
      <feComposite in="SourceGraphic"/>
    </filter>
    <clipPath id="clip-path-2">
      <path id="Trazado_4725" data-name="Trazado 4725" d="M14.129,0A11.444,11.444,0,1,0,25.575,11.447,11.447,11.447,0,0,0,14.129,0Z" transform="translate(-2.683 -0.001)" fill="url(#linear-gradient)"/>
    </clipPath>
    <clipPath id="clip-path-3">
      <path id="Trazado_4726" data-name="Trazado 4726" d="M0,29.754a2.949,2.949,0,0,0,5.9,0,17.3,17.3,0,1,1,34.606,0,2.949,2.949,0,0,0,5.9,0,23.2,23.2,0,1,0-46.4,0" transform="translate(0 -6.55)" fill="url(#linear-gradient)"/>
    </clipPath>
  </defs>
  <g id="Grupo_4856" data-name="Grupo 4856" transform="translate(-1103 -131)">
    <g id="Grupo_4845" data-name="Grupo 4845">
      <g transform="matrix(1, 0, 0, 1, 1103, 131)" filter="url(#Elipse_89)">
        <g id="Elipse_89-2" data-name="Elipse 89" transform="translate(9 6)" fill="#fff" stroke="#707070" stroke-width="1">
          <circle cx="58" cy="58" r="58" stroke="none"/>
          <circle cx="58" cy="58" r="57.5" fill="none"/>
        </g>
      </g>
      <g transform="matrix(1, 0, 0, 1, 1103, 131)" filter="url(#Elipse_91)">
        <g id="Elipse_91-2" data-name="Elipse 91" transform="translate(9 6)" fill="none" stroke="#8556ee" stroke-width="2">
          <circle cx="58" cy="58" r="58" stroke="none"/>
          <circle cx="58" cy="58" r="57" fill="none"/>
        </g>
      </g>
    </g>
    <g id="Grupo_4855" data-name="Grupo 4855" transform="translate(1147.799 166.573)">
      <g id="Grupo_4852" data-name="Grupo 4852" transform="translate(11.757 0.001)">
        <g id="Grupo_4851" data-name="Grupo 4851" clip-path="url(#clip-path-2)">
          <rect id="Rect치ngulo_839" data-name="Rect치ngulo 839" width="22.892" height="22.888" transform="translate(0 -0.002)" fill="url(#linear-gradient)"/>
        </g>
      </g>
      <g id="Grupo_4854" data-name="Grupo 4854" transform="translate(0 28.7)">
        <g id="Grupo_4853" data-name="Grupo 4853" clip-path="url(#clip-path-3)">
          <rect id="Rect치ngulo_840" data-name="Rect치ngulo 840" width="46.403" height="26.153" transform="translate(0 -0.002)" fill="url(#linear-gradient)"/>
        </g>
      </g>
    </g>
  </g>
</svg>
