<svg xmlns="http://www.w3.org/2000/svg" viewBox="0, 0, 400,464.08839779005524">
      <g id="svgg">
        <path
        fill="#8556ee"
          d="M33.149 19.079 C 20.847 21.762,10.637 31.682,7.495 44.002 C 6.169 49.204,6.177 301.118,7.503 306.274 C 8.947 311.886,11.407 316.347,15.379 320.557 C 18.609 323.981,169.328 443.908,176.808 449.006 C 186.325 455.492,199.278 456.304,210.172 451.097 C 214.659 448.953,366.541 329.263,374.135 321.887 C 378.940 317.220,382.310 311.175,383.411 305.249 C 383.855 302.857,383.981 266.097,383.864 173.204 L 383.702 44.475 382.465 41.198 C 378.200 29.894,368.541 21.437,357.182 19.060 C 351.222 17.813,279.139 17.852,273.070 19.106 C 265.058 20.761,263.151 22.044,231.215 47.269 C 214.807 60.230,200.006 71.899,198.325 73.202 L 195.269 75.570 163.242 50.253 C 129.163 23.314,127.737 22.280,121.456 19.993 L 117.403 18.517 77.072 18.407 C 44.010 18.316,36.093 18.437,33.149 19.079 M142.342 78.623 C 183.522 111.256,183.150 111.029,195.304 111.032 C 207.737 111.036,206.625 111.715,248.435 78.604 L 280.020 53.591 314.595 53.591 L 349.171 53.591 349.171 175.379 L 349.171 297.167 272.273 358.046 C 218.165 400.884,195.164 418.782,194.662 418.441 C 194.270 418.174,159.649 390.856,117.727 357.735 L 41.505 297.514 41.471 175.552 L 41.436 53.591 76.105 53.598 L 110.773 53.605 142.342 78.623 M113.260 176.976 C 91.854 181.057,83.713 208.092,99.390 223.034 C 106.604 229.910,179.592 287.238,183.702 289.256 C 191.055 292.867,199.556 292.866,206.906 289.255 C 211.272 287.111,287.804 226.966,292.383 222.082 C 309.679 203.633,293.087 172.859,267.947 176.759 C 260.164 177.967,261.848 176.815,223.606 207.081 C 208.178 219.292,195.444 229.282,195.308 229.282 C 195.172 229.282,181.815 218.802,165.625 205.994 C 126.166 174.777,125.814 174.582,113.260 176.976 "
          fillRule="evenodd"
        ></path>
      </g>
    </svg>