<svg id="Capa_1" data-name="Capa 1" xmlns="http://www.w3.org/2000/svg" viewBox="0 0 1080 1080"><defs><style>.cls-1{fill:#fff;}</style></defs><path class="cls-1" d="M273.65,693.2A23.79,23.79,0,0,1,258.83,688L149.05,601.09A23.76,23.76,0,0,1,140,582.37V408.28a23.9,23.9,0,0,1,23.87-23.87h50a24,24,0,0,1,14.83,5.16l44.93,35.58,44.93-35.58a23.94,23.94,0,0,1,14.82-5.16h50a23.89,23.89,0,0,1,23.87,23.87V582.37a23.72,23.72,0,0,1-9,18.71h0L288.47,688A23.79,23.79,0,0,1,273.65,693.2ZM164.56,582l109.09,86.38L382.73,582V409H333.64l-45.17,35.77a23.78,23.78,0,0,1-29.64,0L213.66,409h-49.1Zm226.06,9.42h0ZM383,581.83Z"/><path class="cls-1" d="M273.65,578a19.29,19.29,0,0,1-12-4.16l-54.6-43.24A19.28,19.28,0,1,1,231,500.37l42.63,33.75,42.62-33.75a19.28,19.28,0,0,1,24,30.23l-54.6,43.24A19.29,19.29,0,0,1,273.65,578Z"/><path class="cls-1" d="M516.42,476.39a1.41,1.41,0,0,1-.52,1.61c-2.63,1.72-6.23,2.62-10.63,2.62-12.93,0-20.73-7.36-20.73-19.72V436.47a1.42,1.42,0,0,0-1.42-1.42h-3.73a1.43,1.43,0,0,1-1.42-1.42v-10a1.42,1.42,0,0,1,1.42-1.42h3.73a1.42,1.42,0,0,0,1.42-1.43v-5.68a14,14,0,0,1,14-13.95h0a1.43,1.43,0,0,1,1.42,1.42v18.21a1.43,1.43,0,0,0,1.42,1.43h6a1.41,1.41,0,0,1,1.35,1l3.21,10a1.42,1.42,0,0,1-1.35,1.86h-9.23a1.42,1.42,0,0,0-1.42,1.41l-.1,23.88c0,4.68,2.56,7,7.8,7h.06a7.83,7.83,0,0,1,7.54,5.34Z"/><path class="cls-1" d="M527.22,456V423a1.78,1.78,0,0,1,1.78-1.79h11.81a1.79,1.79,0,0,1,1.78,1.79v32c0,6.35,4.79,11,11.48,11a12.21,12.21,0,0,0,12.59-12.48V423a1.78,1.78,0,0,1,1.78-1.79h11.81A1.79,1.79,0,0,1,582,423v42.67a13.58,13.58,0,0,1-13.59,13.59h0a1.78,1.78,0,0,1-1.78-1.79h0a1.78,1.78,0,0,0-2.86-1.41,21.27,21.27,0,0,1-13.08,4.2C537.24,480.28,527.22,469.7,527.22,456Z"/><path class="cls-1" d="M602.37,462.05a.79.79,0,0,1,1,.19c2.7,3.26,7.78,5.45,13.16,5.45s9.8-2.45,9.8-5.46c0-8-32-7.13-32-24.84,0-10.14,10-17.38,23.51-17.38,10.7,0,19.41,4.51,22.77,11.7a.83.83,0,0,1-.33,1l-8.37,5a.82.82,0,0,1-1.11-.29c-2.11-3.25-6.57-5.2-12.29-5.2s-9.48,1.9-9.48,4.91c0,6.35,32.65,5.9,32.65,24.73,0,10.69-10.36,18.61-24.62,18.61-10.8,0-19.92-4.5-24.43-11.67a.83.83,0,0,1,.28-1.13Z"/><path class="cls-1" d="M516.32,584.23a1.88,1.88,0,0,1-.82,2.17,19.76,19.76,0,0,1-10.23,2.37c-12.93,0-20.73-7.35-20.73-19.72V545a1.83,1.83,0,0,0-1.83-1.84H479.8a1.83,1.83,0,0,1-1.83-1.83v-9.15a1.83,1.83,0,0,1,1.83-1.83h2.91a1.83,1.83,0,0,0,1.83-1.83v-5.69a13.55,13.55,0,0,1,13.55-13.54h0a1.83,1.83,0,0,1,1.83,1.84v17.39a1.83,1.83,0,0,0,1.83,1.83h5.3a1.84,1.84,0,0,1,1.75,1.27l2.94,9.15A1.83,1.83,0,0,1,510,543.2h-8.25a1.84,1.84,0,0,0-1.83,1.83l-.1,23.46c0,4.68,2.56,7,7.8,7h.06a8,8,0,0,1,7.59,5.5Z"/><path class="cls-1" d="M545,534.27c5-3.86,11.37-5.28,17.55-5.52a1.33,1.33,0,0,1,1.32,1.74L560,542a1.31,1.31,0,0,1-1.23.9c-10,.26-16,4.78-16,15.59v14.91a13.94,13.94,0,0,1-13.94,13.94h0a1.32,1.32,0,0,1-1.32-1.32V530.82a1.32,1.32,0,0,1,1.32-1.32h12.62a1.32,1.32,0,0,1,1.32,1.32v2.43A1.32,1.32,0,0,0,545,534.27Z"/><path class="cls-1" d="M615.34,535.85v-5.11a1.25,1.25,0,0,1,1.25-1.24h12.89a1.25,1.25,0,0,1,1.24,1.24v41.32a15.38,15.38,0,0,1-15.38,15.37h0v-6.35a22.38,22.38,0,0,1-17,7.47c-15.38,0-28.41-14-28.41-30.42s12.7-29.52,28.3-29.52A22.53,22.53,0,0,1,615.34,535.85Zm-15,6.68c-8.46,0-15,6.91-15,16.05s6.35,15.93,14.93,15.93,15.15-6.91,15.15-15.93S608.77,542.53,600.3,542.53Zm-5-20.95,9-18.4a1.24,1.24,0,0,1,1.51-.63l11.26,3.75a1.24,1.24,0,0,1,.55,2l-12.47,14.65a1.24,1.24,0,0,1-.94.44h-7.8A1.25,1.25,0,0,1,595.27,521.58Z"/><path class="cls-1" d="M733.78,552.45v21.4a13.48,13.48,0,0,1-13.48,13.47h0a1.68,1.68,0,0,1-1.68-1.67v-32.2c0-6.68-3.9-11-10-11s-10.7,4.91-10.7,11.7v19.39a13.81,13.81,0,0,1-13.81,13.81h0a1.68,1.68,0,0,1-1.68-1.67V553.34c0-6.35-4-10.92-9.8-10.92-6.24,0-10.92,5.13-10.92,11.92v19.28a13.7,13.7,0,0,1-13.7,13.7h0a1.67,1.67,0,0,1-1.67-1.67V531.06a1.67,1.67,0,0,1,1.67-1.67h12a1.67,1.67,0,0,1,1.67,1.67h0a1.67,1.67,0,0,0,2.72,1.3A18.81,18.81,0,0,1,691,535.57a1.66,1.66,0,0,0,2.55.07c4.3-4.91,9.88-7.37,16.83-7.37C724.31,528.27,733.78,538.41,733.78,552.45Z"/><path class="cls-1" d="M757.62,506.88a8.24,8.24,0,0,1,8.47,8.36,8.42,8.42,0,1,1-8.47-8.36Zm7.69,24.25v41A15.27,15.27,0,0,1,750,587.43h0v-56.3a1.63,1.63,0,0,1,1.63-1.63h12A1.63,1.63,0,0,1,765.31,531.13Z"/><path class="cls-1" d="M816.66,584.85a1,1,0,0,1-.35,1.12c-2.65,1.84-6.34,2.8-10.9,2.8-12.92,0-20.72-7.35-20.72-19.72V544.2a1,1,0,0,0-1-1h-4.59a1,1,0,0,1-1-1V531.38a1,1,0,0,1,1-1h4.59a1,1,0,0,0,1-1v-6.5a13.57,13.57,0,0,1,13.57-13.57h.81a1,1,0,0,1,1,1V529.4a1,1,0,0,0,1,1h6.75a1,1,0,0,1,.94.69l3.49,10.82a1,1,0,0,1-1,1.3H801.06a1,1,0,0,0-1,1l-.11,24.3c0,4.68,2.57,7,7.8,7a8.51,8.51,0,0,0,4.32-.93,1,1,0,0,1,1.42.56Z"/><path class="cls-1" d="M873.43,575.87a3.87,3.87,0,0,1-.28,5.68c-5,4.21-12.54,6.89-19.83,6.89a30.06,30.06,0,0,1-29.86-30.08c0-16.49,13.93-29.75,30.86-29.75,17.52,0,29.73,13.4,29.92,31.67a4.23,4.23,0,0,1-4.26,4.2H840.06c1.9,5.91,7.91,10.25,14.93,10.25a14.41,14.41,0,0,0,6-1.27,11.07,11.07,0,0,1,12.4,2.41Zm-7.84-23.42a1.39,1.39,0,0,0,1.25-2,14.37,14.37,0,0,0-25.9,0,1.39,1.39,0,0,0,1.25,2Z"/><path class="cls-1" d="M899.6,570.81a2.31,2.31,0,0,1,2.8.38c2.82,2.82,7.5,4.66,12.42,4.66,5.46,0,9.8-2.45,9.8-5.46,0-8-32-7.13-32-24.85,0-10.14,10-17.38,23.51-17.38,10.05,0,18.34,4,22.09,10.41a2.25,2.25,0,0,1-.82,3l-6.08,3.64a2.22,2.22,0,0,1-2.82-.42c-2.29-2.77-6.47-4.4-11.7-4.4-5.69,0-9.47,1.89-9.47,4.9,0,6.35,32.64,5.9,32.64,24.73,0,10.7-10.36,18.61-24.62,18.61-10.11,0-18.75-3.94-23.51-10.33a2.25,2.25,0,0,1,.67-3.25Z"/><path class="cls-1" d="M506.91,694.11,478,620.79a2.34,2.34,0,0,1,2.18-3.19h11.36a2.34,2.34,0,0,1,2.17,1.48l18.64,47.09a2.34,2.34,0,0,0,4.34,0l18.74-47.1a2.33,2.33,0,0,1,2.17-1.47h11.26a2.34,2.34,0,0,1,2.17,3.19l-28.8,73.32a2.35,2.35,0,0,1-2.18,1.48h-11A2.34,2.34,0,0,1,506.91,694.11Z"/><path class="cls-1" d="M580.58,618.6v62.5a14.49,14.49,0,0,1-14.49,14.49h0a1,1,0,0,1-1-1v-76a1,1,0,0,1,1-1h13.49A1,1,0,0,1,580.58,618.6Z"/><path class="cls-1" d="M599.08,619.45a2,2,0,0,1,1.95-2h30c15.71,0,28,10.81,28,24.84,0,13.37-12.82,24.85-28,24.85H616.52a2,2,0,0,0-2,2v12.92A13.53,13.53,0,0,1,601,695.59h0a2,2,0,0,1-1.95-2Zm15.48,32a2,2,0,0,0,2,2h14.53c6.69,0,12.48-5.23,12.48-11,0-6.24-5.35-11-12.48-11H616.52a2,2,0,0,0-2,2Z"/></svg>