<?xml version="1.0" encoding="UTF-8"?>
<!DOCTYPE svg PUBLIC "-//W3C//DTD SVG 1.1//EN" "http://www.w3.org/Graphics/SVG/1.1/DTD/svg11.dtd">
<svg xmlns="http://www.w3.org/2000/svg" version="1.1" width="183px" height="212px" style="shape-rendering:geometricPrecision; text-rendering:geometricPrecision; image-rendering:optimizeQuality; fill-rule:evenodd; clip-rule:evenodd" xmlns:xlink="http://www.w3.org/1999/xlink">
<g><path style="opacity:1" fill="#5e05f0" d="M 172.5,11.5 C 172.916,43.1857 172.583,64.8524 171.5,76.5C 167.5,76.5 163.5,76.5 159.5,76.5C 158.791,61.6959 158.124,45.0293 157.5,26.5C 157.5,26.1667 157.5,25.8333 157.5,25.5C 156.409,22.5722 154.409,20.4055 151.5,19C 143.167,18.3333 134.833,18.3333 126.5,19C 121.005,22.9996 115.671,27.1663 110.5,31.5C 106.375,34.4526 102.375,37.6193 98.5,41C 92.5,44.3333 86.5,44.3333 80.5,41C 75.1672,36.0102 69.5005,31.5102 63.5,27.5C 60.3047,24.1479 56.638,21.3145 52.5,19C 44.1667,18.3333 35.8333,18.3333 27.5,19C 24.6141,20.3845 22.6141,22.5512 21.5,25.5C 21.5,26.1667 21.5,26.8333 21.5,27.5C 20.8639,60.3547 20.1972,90.6881 19.5,118.5C 15.5,118.5 11.5,118.5 7.5,118.5C 7.81822,123.032 7.48489,127.366 6.5,131.5C 6.5,91.8333 6.5,52.1667 6.5,12.5C 7.92128,7.91017 10.9213,4.74351 15.5,3C 29.5,2.33333 43.5,2.33333 57.5,3C 68.4229,11.0451 79.2563,19.2118 90,27.5C 100.214,18.9513 110.714,10.7846 121.5,3C 135.5,2.33333 149.5,2.33333 163.5,3C 167.654,4.65522 170.654,7.48856 172.5,11.5 Z"/></g>
<g><path style="opacity:1" fill="#5406d1" d="M 63.5,27.5 C 63.5,29.8333 63.5,32.1667 63.5,34.5C 59.7093,31.8819 56.0426,29.0486 52.5,26C 42.172,25.5002 31.8387,25.3335 21.5,25.5C 22.6141,22.5512 24.6141,20.3845 27.5,19C 35.8333,18.3333 44.1667,18.3333 52.5,19C 56.638,21.3145 60.3047,24.1479 63.5,27.5 Z"/></g>
<g><path style="opacity:1" fill="#5b14c7" d="M 157.5,25.5 C 147.161,25.3335 136.828,25.5002 126.5,26C 121.578,30.7632 116.244,34.9299 110.5,38.5C 110.5,36.1667 110.5,33.8333 110.5,31.5C 115.671,27.1663 121.005,22.9996 126.5,19C 134.833,18.3333 143.167,18.3333 151.5,19C 154.409,20.4055 156.409,22.5722 157.5,25.5 Z"/></g>
<g><path style="opacity:1" fill="#40434d" d="M 5.5,22.5 C 5.33335,60.8348 5.50001,99.1681 6,137.5C 8.88681,143.89 13.3868,148.89 19.5,152.5C 22.1667,154.833 24.8333,157.167 27.5,159.5C 20.9723,156.627 14.9723,152.96 9.5,148.5C 9.32516,146.156 8.15849,144.489 6,143.5C 5.66667,141.833 5.33333,140.167 5,138.5C 4.16883,99.6645 4.33549,60.9978 5.5,22.5 Z"/></g>
<g><path style="opacity:1" fill="#28292c" d="M 5.5,18.5 C 5.5,19.8333 5.5,21.1667 5.5,22.5C 4.33549,60.9978 4.16883,99.6645 5,138.5C 5.33333,140.167 5.66667,141.833 6,143.5C 8.15849,144.489 9.32516,146.156 9.5,148.5C 7.37627,147.969 5.87627,146.635 5,144.5C 4.17786,142.212 3.5112,139.878 3,137.5C 2.33333,100.167 2.33333,62.8333 3,25.5C 3.15579,22.8091 3.98912,20.4758 5.5,18.5 Z"/></g>
<g><path style="opacity:1" fill="#abb1f8" d="M 157.5,25.5 C 157.5,25.8333 157.5,26.1667 157.5,26.5C 147.504,27.0523 137.504,27.8857 127.5,29C 123.721,33.7771 119.054,37.4438 113.5,40C 108.979,45.2699 103.646,49.6033 97.5,53C 92.4107,53.8257 87.4107,53.4924 82.5,52C 81.7476,51.3292 81.4142,50.4959 81.5,49.5C 86.3954,51.9011 91.3954,52.0678 96.5,50C 101.647,46.6802 106.314,42.8469 110.5,38.5C 116.244,34.9299 121.578,30.7632 126.5,26C 136.828,25.5002 147.161,25.3335 157.5,25.5 Z"/></g>
<g><path style="opacity:1" fill="#464755" d="M 173.5,14.5 C 174.117,14.6107 174.617,14.944 175,15.5C 175.567,18.1677 176.067,20.8344 176.5,23.5C 176.832,61.6703 176.499,99.6703 175.5,137.5C 175.667,98.8319 175.5,60.1652 175,21.5C 174.802,19.6183 174.302,17.9516 173.5,16.5C 173.5,15.8333 173.5,15.1667 173.5,14.5 Z"/></g>
<g><path style="opacity:1" fill="#c4cbfe" d="M 157.5,26.5 C 157.5,32.5 157.5,38.5 157.5,44.5C 128.896,54.1261 104.229,69.7928 83.5,91.5C 75.586,84.7507 67.2526,78.584 58.5,73C 50.7832,71.8843 45.7832,75.051 43.5,82.5C 42.7704,86.0306 42.1037,89.6973 41.5,93.5C 46.3552,102.693 53.3552,110.026 62.5,115.5C 55.8209,124.851 50.1542,134.851 45.5,145.5C 39.1966,140.676 32.8633,135.842 26.5,131C 24.8588,129.871 23.8588,128.371 23.5,126.5C 24.4923,94.24 24.8256,61.9066 24.5,29.5C 41.7164,25.5464 56.0498,30.0464 67.5,43C 72.4052,44.2323 76.5719,46.7323 80,50.5C 80.3826,49.944 80.8826,49.6107 81.5,49.5C 81.4142,50.4959 81.7476,51.3292 82.5,52C 87.4107,53.4924 92.4107,53.8257 97.5,53C 103.646,49.6033 108.979,45.2699 113.5,40C 119.054,37.4438 123.721,33.7771 127.5,29C 137.504,27.8857 147.504,27.0523 157.5,26.5 Z"/></g>
<g><path style="opacity:1" fill="#b0b8fa" d="M 21.5,25.5 C 31.8387,25.3335 42.172,25.5002 52.5,26C 56.0426,29.0486 59.7093,31.8819 63.5,34.5C 69.5,39.5 75.5,44.5 81.5,49.5C 80.8826,49.6107 80.3826,49.944 80,50.5C 76.5719,46.7323 72.4052,44.2323 67.5,43C 56.0498,30.0464 41.7164,25.5464 24.5,29.5C 24.8256,61.9066 24.4923,94.24 23.5,126.5C 22.7321,125.737 22.2321,124.737 22,123.5C 21.5,91.5017 21.3334,59.5017 21.5,27.5C 21.5,26.8333 21.5,26.1667 21.5,25.5 Z"/></g>
<g><path style="opacity:1" fill="#6f23ea" d="M 63.5,27.5 C 69.5005,31.5102 75.1672,36.0102 80.5,41C 86.5,44.3333 92.5,44.3333 98.5,41C 102.375,37.6193 106.375,34.4526 110.5,31.5C 110.5,33.8333 110.5,36.1667 110.5,38.5C 106.314,42.8469 101.647,46.6802 96.5,50C 91.3954,52.0678 86.3954,51.9011 81.5,49.5C 75.5,44.5 69.5,39.5 63.5,34.5C 63.5,32.1667 63.5,29.8333 63.5,27.5 Z"/></g>
<g><path style="opacity:1" fill="#ced4fe" d="M 157.5,44.5 C 157.667,71.1687 157.5,97.8354 157,124.5C 155.969,127.539 154.135,130.039 151.5,132C 147.249,134.945 143.249,138.112 139.5,141.5C 125.708,152.119 112.042,162.953 98.5,174C 91.8654,178.937 85.532,178.604 79.5,173C 68.2679,163.59 56.9346,154.424 45.5,145.5C 50.1542,134.851 55.8209,124.851 62.5,115.5C 62.8966,114.475 63.5632,114.308 64.5,115C 69.0315,120.871 74.6982,125.204 81.5,128C 82.1667,129 82.8333,130 83.5,131C 88.1667,131.667 92.8333,131.667 97.5,131C 111.363,121.111 124.53,110.611 137,99.5C 139.053,95.4136 139.887,91.0803 139.5,86.5C 138.5,86.5 137.5,86.5 136.5,86.5C 136.784,84.5853 136.451,82.9187 135.5,81.5C 132.955,74.5558 127.955,71.7224 120.5,73C 110.215,80.2835 100.215,87.9502 90.5,96C 89.8333,96.6667 89.1667,96.6667 88.5,96C 86.9625,94.2927 85.2959,92.7927 83.5,91.5C 104.229,69.7928 128.896,54.1261 157.5,44.5 Z"/></g>
<g><path style="opacity:1" fill="#5c03f2" d="M 83.5,91.5 C 85.2959,92.7927 86.9625,94.2927 88.5,96C 89.1667,96.6667 89.8333,96.6667 90.5,96C 100.215,87.9502 110.215,80.2835 120.5,73C 127.955,71.7224 132.955,74.5558 135.5,81.5C 135.816,84.9783 135.316,88.3117 134,91.5C 124.25,100.424 114.084,108.757 103.5,116.5C 100.209,119.484 96.5423,121.984 92.5,124C 90.5,124.667 88.5,124.667 86.5,124C 73.883,115.051 61.5497,105.717 49.5,96C 46.8792,93.8859 44.8792,91.3859 43.5,88.5C 43.5,86.5 43.5,84.5 43.5,82.5C 45.7832,75.051 50.7832,71.8843 58.5,73C 67.2526,78.584 75.586,84.7507 83.5,91.5 Z"/></g>
<g><path style="opacity:1" fill="#5e1fc8" d="M 135.5,81.5 C 136.451,82.9187 136.784,84.5853 136.5,86.5C 136.84,90.1309 136.006,93.4642 134,96.5C 124.25,105.424 114.084,113.757 103.5,121.5C 103.5,119.833 103.5,118.167 103.5,116.5C 114.084,108.757 124.25,100.424 134,91.5C 135.316,88.3117 135.816,84.9783 135.5,81.5 Z"/></g>
<g><path style="opacity:1" fill="#6f22f2" d="M 172.5,11.5 C 173.404,12.209 173.737,13.209 173.5,14.5C 173.5,15.1667 173.5,15.8333 173.5,16.5C 173.5,54.5 173.5,92.5 173.5,130.5C 170.865,136.468 166.532,140.802 160.5,143.5C 153.289,143.542 146.289,142.875 139.5,141.5C 143.249,138.112 147.249,134.945 151.5,132C 154.135,130.039 155.969,127.539 157,124.5C 157.5,97.8354 157.667,71.1687 157.5,44.5C 157.5,38.5 157.5,32.5 157.5,26.5C 158.124,45.0293 158.791,61.6959 159.5,76.5C 163.5,76.5 167.5,76.5 171.5,76.5C 172.583,64.8524 172.916,43.1857 172.5,11.5 Z"/></g>
<g><path style="opacity:1" fill="#bac0fa" d="M 43.5,82.5 C 43.5,84.5 43.5,86.5 43.5,88.5C 43.1073,93.8247 45.1073,97.9914 49.5,101C 61.5497,110.717 73.883,120.051 86.5,129C 88.5,129.667 90.5,129.667 92.5,129C 96.5423,126.984 100.209,124.484 103.5,121.5C 114.084,113.757 124.25,105.424 134,96.5C 136.006,93.4642 136.84,90.1309 136.5,86.5C 137.5,86.5 138.5,86.5 139.5,86.5C 139.887,91.0803 139.053,95.4136 137,99.5C 124.53,110.611 111.363,121.111 97.5,131C 92.8333,131.667 88.1667,131.667 83.5,131C 82.8333,130 82.1667,129 81.5,128C 74.6982,125.204 69.0315,120.871 64.5,115C 63.5632,114.308 62.8966,114.475 62.5,115.5C 53.3552,110.026 46.3552,102.693 41.5,93.5C 42.1037,89.6973 42.7704,86.0306 43.5,82.5 Z"/></g>
<g><path style="opacity:1" fill="#6720e0" d="M 43.5,88.5 C 44.8792,91.3859 46.8792,93.8859 49.5,96C 61.5497,105.717 73.883,115.051 86.5,124C 88.5,124.667 90.5,124.667 92.5,124C 96.5423,121.984 100.209,119.484 103.5,116.5C 103.5,118.167 103.5,119.833 103.5,121.5C 100.209,124.484 96.5423,126.984 92.5,129C 90.5,129.667 88.5,129.667 86.5,129C 73.883,120.051 61.5497,110.717 49.5,101C 45.1073,97.9914 43.1073,93.8247 43.5,88.5 Z"/></g>
<g><path style="opacity:1" fill="#5a16c3" d="M 173.5,130.5 C 174.36,137.092 172.36,142.592 167.5,147C 150.005,160.333 132.671,173.833 115.5,187.5C 114.527,185.932 114.36,184.265 115,182.5C 115.333,183.5 115.667,184.5 116,185.5C 116.186,183.1 116.686,180.766 117.5,178.5C 132.167,167.158 146.5,155.492 160.5,143.5C 166.532,140.802 170.865,136.468 173.5,130.5 Z"/></g>
<g><path style="opacity:1" fill="#5919c3" d="M 6.5,12.5 C 6.5,52.1667 6.5,91.8333 6.5,131.5C 7.32006,133.14 8.15339,134.807 9,136.5C 13.0261,139.698 16.8595,143.032 20.5,146.5C 20.6747,148.621 20.3414,150.621 19.5,152.5C 13.3868,148.89 8.88681,143.89 6,137.5C 5.50001,99.1681 5.33335,60.8348 5.5,22.5C 5.5,21.1667 5.5,19.8333 5.5,18.5C 5.20528,16.2646 5.53862,14.2646 6.5,12.5 Z"/></g>
<g><path style="opacity:1" fill="#636483" d="M 173.5,16.5 C 174.302,17.9516 174.802,19.6183 175,21.5C 175.5,60.1652 175.667,98.8319 175.5,137.5C 175.227,142.212 173.227,146.045 169.5,149C 159.5,157 149.5,165 139.5,173C 137.112,174.861 134.446,176.194 131.5,177C 121.627,185.71 111.627,194.21 101.5,202.5C 98.7847,204.123 95.7847,204.79 92.5,204.5C 100.666,199.576 108.333,193.909 115.5,187.5C 132.671,173.833 150.005,160.333 167.5,147C 172.36,142.592 174.36,137.092 173.5,130.5C 173.5,92.5 173.5,54.5 173.5,16.5 Z"/></g>
<g><path style="opacity:1" fill="#550acf" d="M 20.5,146.5 C 35.0582,156.879 49.2248,167.879 63,179.5C 63.2362,181.764 63.7362,183.931 64.5,186C 63.944,186.383 63.6107,186.883 63.5,187.5C 51.7861,177.785 39.7861,168.451 27.5,159.5C 24.8333,157.167 22.1667,154.833 19.5,152.5C 20.3414,150.621 20.6747,148.621 20.5,146.5 Z"/></g>
<g><path style="opacity:1" fill="#32333a" d="M 176.5,23.5 C 177.664,61.6645 177.831,99.9978 177,138.5C 176.333,141.167 175.667,143.833 175,146.5C 150.122,167.046 124.955,187.213 99.5,207C 92.1868,209.435 85.1868,208.769 78.5,205C 56.3486,187.092 34.0152,169.426 11.5,152C 10.1772,151.184 9.51056,150.017 9.5,148.5C 14.9723,152.96 20.9723,156.627 27.5,159.5C 29.5822,161.769 31.5822,164.269 33.5,167C 35.1667,167.833 36.8333,168.667 38.5,169.5C 46.7112,177.211 55.3778,184.377 64.5,191C 66.5766,192.705 68.91,193.872 71.5,194.5C 71.33,195.822 71.6634,196.989 72.5,198C 76.9847,199.477 80.6514,202.143 83.5,206C 88.1667,206.667 92.8333,206.667 97.5,206C 99.3237,205.34 100.657,204.173 101.5,202.5C 111.627,194.21 121.627,185.71 131.5,177C 134.446,176.194 137.112,174.861 139.5,173C 149.5,165 159.5,157 169.5,149C 173.227,146.045 175.227,142.212 175.5,137.5C 176.499,99.6703 176.832,61.6703 176.5,23.5 Z"/></g>
<g><path style="opacity:1" fill="#7325f0" d="M 21.5,27.5 C 21.3334,59.5017 21.5,91.5017 22,123.5C 22.2321,124.737 22.7321,125.737 23.5,126.5C 23.8588,128.371 24.8588,129.871 26.5,131C 32.8633,135.842 39.1966,140.676 45.5,145.5C 56.9346,154.424 68.2679,163.59 79.5,173C 85.532,178.604 91.8654,178.937 98.5,174C 112.042,162.953 125.708,152.119 139.5,141.5C 146.289,142.875 153.289,143.542 160.5,143.5C 146.5,155.492 132.167,167.158 117.5,178.5C 116.686,180.766 116.186,183.1 116,185.5C 115.667,184.5 115.333,183.5 115,182.5C 114.36,184.265 114.527,185.932 115.5,187.5C 108.333,193.909 100.666,199.576 92.5,204.5C 89.3926,204.649 86.3926,204.149 83.5,203C 79.3431,200.336 75.3431,197.503 71.5,194.5C 68.8739,192.177 66.2072,189.843 63.5,187.5C 63.6107,186.883 63.944,186.383 64.5,186C 63.7362,183.931 63.2362,181.764 63,179.5C 49.2248,167.879 35.0582,156.879 20.5,146.5C 16.8595,143.032 13.0261,139.698 9,136.5C 8.15339,134.807 7.32006,133.14 6.5,131.5C 7.48489,127.366 7.81822,123.032 7.5,118.5C 11.5,118.5 15.5,118.5 19.5,118.5C 20.1972,90.6881 20.8639,60.3547 21.5,27.5 Z"/></g>
<g><path style="opacity:1" fill="#515169" d="M 27.5,159.5 C 39.7861,168.451 51.7861,177.785 63.5,187.5C 66.2072,189.843 68.8739,192.177 71.5,194.5C 68.91,193.872 66.5766,192.705 64.5,191C 55.3778,184.377 46.7112,177.211 38.5,169.5C 36.8333,168.667 35.1667,167.833 33.5,167C 31.5822,164.269 29.5822,161.769 27.5,159.5 Z"/></g>
<g><path style="opacity:1" fill="#4a4c5c" d="M 71.5,194.5 C 75.3431,197.503 79.3431,200.336 83.5,203C 86.3926,204.149 89.3926,204.649 92.5,204.5C 95.7847,204.79 98.7847,204.123 101.5,202.5C 100.657,204.173 99.3237,205.34 97.5,206C 92.8333,206.667 88.1667,206.667 83.5,206C 80.6514,202.143 76.9847,199.477 72.5,198C 71.6634,196.989 71.33,195.822 71.5,194.5 Z"/></g>
</svg>
