<svg id="Capa_1" data-name="Capa 1" xmlns="http://www.w3.org/2000/svg" viewBox="0 0 1080 1080"><defs><style>.cls-1{fill:#5c00f3;}</style></defs><path class="cls-1" d="M515.06,470.08a1.4,1.4,0,0,1-.53,1.6c-2.63,1.73-6.24,2.63-10.66,2.63-13,0-20.79-7.37-20.79-19.78V430a1.43,1.43,0,0,0-1.43-1.42h-3.74a1.42,1.42,0,0,1-1.42-1.43v-10a1.42,1.42,0,0,1,1.42-1.43h3.74a1.42,1.42,0,0,0,1.43-1.42v-5.7a14,14,0,0,1,14-14h0a1.42,1.42,0,0,1,1.42,1.43v18.27a1.42,1.42,0,0,0,1.43,1.42h6a1.43,1.43,0,0,1,1.36,1l3.22,10a1.43,1.43,0,0,1-1.36,1.86h-9.25A1.42,1.42,0,0,0,498.5,430l-.11,24c0,4.69,2.57,7,7.83,7h.06a7.87,7.87,0,0,1,7.57,5.36Z"/><path class="cls-1" d="M525.89,449.61V416.53a1.79,1.79,0,0,1,1.79-1.79h11.84a1.79,1.79,0,0,1,1.79,1.79v32.08c0,6.37,4.81,11.06,11.52,11.06a12.25,12.25,0,0,0,12.63-12.52V416.53a1.79,1.79,0,0,1,1.79-1.79h11.84a1.79,1.79,0,0,1,1.79,1.79v42.81A13.63,13.63,0,0,1,567.25,473h0a1.79,1.79,0,0,1-1.79-1.79h0a1.78,1.78,0,0,0-2.87-1.42A21.32,21.32,0,0,1,549.47,474C536,474,525.89,463.36,525.89,449.61Z"/><path class="cls-1" d="M601.28,455.68a.81.81,0,0,1,1.05.2c2.71,3.26,7.81,5.47,13.2,5.47s9.84-2.46,9.84-5.48c0-8.05-32.08-7.15-32.08-24.92,0-10.18,10.06-17.44,23.58-17.44,10.74,0,19.48,4.53,22.85,11.74a.82.82,0,0,1-.34,1l-8.39,5a.83.83,0,0,1-1.12-.29c-2.11-3.26-6.59-5.22-12.33-5.22s-9.5,1.9-9.5,4.92c0,6.37,32.75,5.93,32.75,24.82,0,10.73-10.39,18.66-24.7,18.66-10.83,0-20-4.51-24.5-11.7a.82.82,0,0,1,.28-1.13Z"/><path class="cls-1" d="M515,578.26a1.85,1.85,0,0,1-.81,2.17,19.81,19.81,0,0,1-10.27,2.38c-13,0-20.79-7.37-20.79-19.78V538.94a1.84,1.84,0,0,0-1.84-1.84h-2.91a1.84,1.84,0,0,1-1.84-1.84v-9.17a1.84,1.84,0,0,1,1.84-1.84h2.91a1.84,1.84,0,0,0,1.84-1.84v-5.7a13.58,13.58,0,0,1,13.59-13.59h0A1.84,1.84,0,0,1,498.5,505v17.45a1.85,1.85,0,0,0,1.84,1.84h5.32a1.83,1.83,0,0,1,1.75,1.27l2.95,9.18a1.84,1.84,0,0,1-1.75,2.4h-8.27a1.83,1.83,0,0,0-1.84,1.83l-.11,23.54c0,4.7,2.57,7,7.83,7h.06A8,8,0,0,1,513.9,575Z"/><path class="cls-1" d="M543.7,528.14c5-3.87,11.4-5.3,17.61-5.53a1.32,1.32,0,0,1,1.32,1.74l-3.81,11.53a1.35,1.35,0,0,1-1.24.9c-10.05.26-16,4.79-16,15.63v15a14,14,0,0,1-14,14h0a1.33,1.33,0,0,1-1.33-1.32V524.68a1.34,1.34,0,0,1,1.33-1.33h12.66a1.34,1.34,0,0,1,1.33,1.33v2.44A1.33,1.33,0,0,0,543.7,528.14Z"/><path class="cls-1" d="M614.3,529.72V524.6a1.25,1.25,0,0,1,1.25-1.25h12.93a1.24,1.24,0,0,1,1.24,1.25v41.45a15.42,15.42,0,0,1-15.42,15.42h0V575.1a22.46,22.46,0,0,1-17.1,7.49c-15.43,0-28.5-14.08-28.5-30.51s12.74-29.62,28.39-29.62A22.63,22.63,0,0,1,614.3,529.72Zm-15.09,6.71c-8.49,0-15.09,6.93-15.09,16.09s6.37,16,15,16,15.2-6.93,15.2-16S607.71,536.43,599.21,536.43Zm-5.05-21,9-18.46a1.26,1.26,0,0,1,1.52-.64L616,500.08a1.25,1.25,0,0,1,.56,2l-12.52,14.7a1.22,1.22,0,0,1-.94.44h-7.83A1.25,1.25,0,0,1,594.16,515.41Z"/><path class="cls-1" d="M733.11,546.38v21.46a13.52,13.52,0,0,1-13.52,13.52h0a1.68,1.68,0,0,1-1.68-1.68v-32.3c0-6.7-3.91-11.06-10.06-11.06s-10.73,4.92-10.73,11.73v19.46a13.85,13.85,0,0,1-13.85,13.85h0a1.68,1.68,0,0,1-1.68-1.68V547.27c0-6.37-4-10.95-9.84-10.95-6.26,0-11,5.14-11,12v19.34a13.75,13.75,0,0,1-13.75,13.74h0a1.68,1.68,0,0,1-1.68-1.68V524.92a1.68,1.68,0,0,1,1.68-1.68h12.07a1.68,1.68,0,0,1,1.68,1.68h0a1.67,1.67,0,0,0,2.72,1.31,18.87,18.87,0,0,1,26.68,3.21,1.66,1.66,0,0,0,2.56.07c4.31-4.92,9.91-7.39,16.88-7.39C723.61,522.12,733.11,532.29,733.11,546.38Z"/><path class="cls-1" d="M757,500.66a8.27,8.27,0,0,1,8.5,8.39,8.44,8.44,0,1,1-8.5-8.39ZM764.74,525v41.17a15.3,15.3,0,0,1-15.31,15.31h0V525a1.64,1.64,0,0,1,1.64-1.64h12A1.64,1.64,0,0,1,764.74,525Z"/><path class="cls-1" d="M816.27,578.88a1,1,0,0,1-.36,1.13c-2.66,1.84-6.36,2.8-10.93,2.8-13,0-20.79-7.37-20.79-19.78V538.1a1,1,0,0,0-1-1h-4.6a1,1,0,0,1-1-1V525.24a1,1,0,0,1,1-1h4.6a1,1,0,0,0,1-1v-6.52a13.61,13.61,0,0,1,13.61-13.61h.82a1,1,0,0,1,1,1v19.13a1,1,0,0,0,1,1h6.77a1,1,0,0,1,1,.69l3.5,10.86a1,1,0,0,1-1,1.3H800.61a1,1,0,0,0-1,1l-.11,24.38c0,4.7,2.57,7,7.83,7a8.57,8.57,0,0,0,4.33-.93,1,1,0,0,1,1.42.56Z"/><path class="cls-1" d="M873.22,569.87a3.89,3.89,0,0,1-.28,5.7c-5,4.22-12.59,6.91-19.9,6.91a30.15,30.15,0,0,1-29.95-30.18c0-16.54,14-29.84,31-29.84,17.57,0,29.82,13.44,30,31.78a4.24,4.24,0,0,1-4.27,4.21h-40c1.9,5.92,7.94,10.28,15,10.28a14.39,14.39,0,0,0,6-1.27,11.11,11.11,0,0,1,12.45,2.41Zm-7.87-23.49a1.4,1.4,0,0,0,1.26-2,14.42,14.42,0,0,0-26,0,1.39,1.39,0,0,0,1.25,2Z"/><path class="cls-1" d="M899.47,564.8a2.28,2.28,0,0,1,2.8.38,18.08,18.08,0,0,0,12.47,4.67c5.48,0,9.84-2.46,9.84-5.48,0-8-32.08-7.15-32.08-24.92,0-10.17,10.06-17.44,23.58-17.44,10.08,0,18.4,4,22.17,10.45a2.24,2.24,0,0,1-.83,3l-6.1,3.65a2.21,2.21,0,0,1-2.83-.42c-2.29-2.78-6.48-4.41-11.74-4.41-5.7,0-9.5,1.9-9.5,4.91,0,6.38,32.75,5.93,32.75,24.82,0,10.73-10.39,18.66-24.7,18.66-10.14,0-18.81-4-23.58-10.36a2.25,2.25,0,0,1,.67-3.26Z"/><path class="cls-1" d="M505.52,688.49l-29-73.55a2.34,2.34,0,0,1,2.18-3.2h11.4a2.32,2.32,0,0,1,2.17,1.48L511,660.46a2.35,2.35,0,0,0,4.36,0l18.8-47.25a2.35,2.35,0,0,1,2.18-1.47H547.6a2.34,2.34,0,0,1,2.18,3.2l-28.9,73.55A2.33,2.33,0,0,1,518.7,690h-11A2.34,2.34,0,0,1,505.52,688.49Z"/><path class="cls-1" d="M579.43,612.74v62.7A14.54,14.54,0,0,1,564.89,690h0a1,1,0,0,1-1-1V612.74a1,1,0,0,1,1-1h13.54A1,1,0,0,1,579.43,612.74Z"/><path class="cls-1" d="M598,613.59a2,2,0,0,1,2-2h30.12c15.76,0,28.05,10.85,28.05,24.93,0,13.41-12.85,24.92-28.05,24.92H615.48a2,2,0,0,0-2,2v13A13.58,13.58,0,0,1,599.94,690h0a2,2,0,0,1-2-2Zm15.54,32.06a2,2,0,0,0,2,2h14.58c6.71,0,12.52-5.26,12.52-11.07,0-6.26-5.37-11.07-12.52-11.07H615.48a2,2,0,0,0-2,2Z"/><path class="cls-1" d="M274.08,694.9a23.94,23.94,0,0,1-14.87-5.2L149.08,602.49A23.82,23.82,0,0,1,140,583.71V409.07A24,24,0,0,1,164,385.12h50.18A24.07,24.07,0,0,1,229,390.29L274.08,426l45.07-35.7A24.11,24.11,0,0,1,334,385.12H384.2a24,24,0,0,1,23.95,23.95V583.71a23.82,23.82,0,0,1-9.08,18.78L289,689.7A24,24,0,0,1,274.08,694.9ZM164.64,583.38,274.08,670l109.43-86.66V409.76H334.26l-45.32,35.88a23.83,23.83,0,0,1-29.73,0l-45.32-35.88H164.64Zm219.14-.21h0Z"/><path class="cls-1" d="M274.08,579.33a19.29,19.29,0,0,1-12-4.18L207.3,531.78a19.34,19.34,0,0,1,24-30.33l42.77,33.86,42.76-33.86a19.34,19.34,0,0,1,24,30.33l-54.77,43.37A19.31,19.31,0,0,1,274.08,579.33Z"/></svg>