<svg xmlns="http://www.w3.org/2000/svg" xmlns:xlink="http://www.w3.org/1999/xlink" width="1162.986" height="639.534" viewBox="0 0 1162.986 639.534">
  <defs>
    <linearGradient id="linear-gradient" x1="0.5" x2="0.5" y2="1" gradientUnits="objectBoundingBox">
      <stop offset="0" stop-color="#feae2a"/>
      <stop offset="1" stop-color="#9d804f"/>
    </linearGradient>
    <linearGradient id="linear-gradient-2" x1="0.5" x2="0.5" y2="1" gradientUnits="objectBoundingBox">
      <stop offset="0" stop-color="#5e32bc"/>
      <stop offset="1" stop-color="#8840f0"/>
    </linearGradient>
    <linearGradient id="linear-gradient-3" x1="0.5" x2="0.5" y2="1" gradientUnits="objectBoundingBox">
      <stop offset="0" stop-color="#793eee"/>
      <stop offset="1" stop-color="#03080f"/>
    </linearGradient>
    <linearGradient id="linear-gradient-4" x1="0.5" x2="0.5" y2="1" gradientUnits="objectBoundingBox">
      <stop offset="0" stop-color="#105afb"/>
      <stop offset="1" stop-color="#0d3896"/>
    </linearGradient>
    <linearGradient id="linear-gradient-6" x1="0.5" x2="0.5" y2="1" gradientUnits="objectBoundingBox">
      <stop offset="0" stop-color="#0f55ee"/>
      <stop offset="1" stop-color="#0d399b"/>
    </linearGradient>
    <linearGradient id="linear-gradient-7" x1="0.5" x2="0.5" y2="1" gradientUnits="objectBoundingBox">
      <stop offset="0" stop-color="#e35b43"/>
      <stop offset="1" stop-color="#722e22"/>
    </linearGradient>
    <linearGradient id="linear-gradient-8" x1="0.5" x2="0.5" y2="1" gradientUnits="objectBoundingBox">
      <stop offset="0" stop-color="#ddd"/>
      <stop offset="1" stop-color="#a8a3a3"/>
    </linearGradient>
    <linearGradient id="linear-gradient-9" x1="0.5" x2="0.5" y2="1" gradientUnits="objectBoundingBox">
      <stop offset="0" stop-color="#d6d3d3"/>
      <stop offset="1" stop-color="#939393"/>
    </linearGradient>
    <linearGradient id="linear-gradient-10" x1="0.5" x2="0.5" y2="1" gradientUnits="objectBoundingBox">
      <stop offset="0" stop-color="#d0d0d0"/>
      <stop offset="1" stop-color="#959191"/>
    </linearGradient>
    <linearGradient id="linear-gradient-11" x1="0.5" x2="0.5" y2="1" gradientUnits="objectBoundingBox">
      <stop offset="0" stop-color="#c9c9c9"/>
      <stop offset="1" stop-color="#838080"/>
    </linearGradient>
    <linearGradient id="linear-gradient-12" x1="0.5" x2="0.5" y2="1" gradientUnits="objectBoundingBox">
      <stop offset="0" stop-color="#b38bff"/>
      <stop offset="1" stop-color="#6d55d3"/>
    </linearGradient>
  </defs>
  <g id="Grupo_4842" data-name="Grupo 4842" transform="translate(-3443.18 2040.288)">
    <g id="Grupo_4512" data-name="Grupo 4512" transform="translate(4140.503 -1656.424)">
      <path id="Trazado_4397" data-name="Trazado 4397" d="M738.409,3413.643h-3.562a3.72,3.72,0,0,1,2.1-.637h89.23c4.668,0,8.453,3.355,8.453,7.493v4.759c0,4.138-3.785,7.493-8.453,7.493l-88.232-.026Z" transform="translate(-733.519 -3413.005)" fill="#7ca1f1"/>
      <path id="Trazado_4398" data-name="Trazado 4398" d="M883.048,3413.049c4.464,0,8.084,3.207,8.084,7.165v5.379c0,3.958-3.619,7.166-8.084,7.166H827.5v-1.2h.229l14.121-1.185,2.855-9.926s-5.509-5.485-5.868-5.627-11.108-.571-11.108-.571H827.5v-1.2Z" transform="translate(-827.5 -3413.031)" fill="#3f59a9"/>
      <path id="Trazado_4399" data-name="Trazado 4399" d="M835.323,3424.639a11.469,11.469,0,0,0-3.383-8.617h54.191c4.1,0,7.425,2.948,7.425,6.583v4.14c0,3.636-3.324,6.582-7.425,6.582H831.94S835.323,3431.946,835.323,3424.639Z" transform="translate(-831.72 -3414.801)" fill="#f4d9a0"/>
      <path id="Trazado_4400" data-name="Trazado 4400" d="M893.556,3422.6v4.14a5.888,5.888,0,0,1-.216,1.579c-1.828-3.964-5.331-7.781-12-9.009-15.569-2.866-49.4-3.292-49.4-3.292h54.191C890.232,3416.022,893.556,3418.969,893.556,3422.6Z" transform="translate(-831.72 -3414.801)" fill="#d4e9f4" style="mix-blend-mode: multiply;isolation: isolate"/>
      <path id="Trazado_4401" data-name="Trazado 4401" d="M703.9,3510.958h-4.031a3.94,3.94,0,0,1,2.382-.8H803.24a9.474,9.474,0,0,1,9.567,9.379v5.958a9.474,9.474,0,0,1-9.567,9.378l-99.862-.034Z" transform="translate(-697.538 -3470.855)" fill="#53b494"/>
      <path id="Trazado_4402" data-name="Trazado 4402" d="M867.6,3510.216a9.061,9.061,0,0,1,9.15,8.969v6.732a9.061,9.061,0,0,1-9.15,8.969H804.731v-1.505h.26l15.983-1.485,3.231-12.424s-6.235-6.864-6.641-7.042-12.572-.713-12.572-.713l-.26,0v-1.5Z" transform="translate(-803.907 -3470.888)" fill="#3b7e68"/>
      <path id="Trazado_4403" data-name="Trazado 4403" d="M813.585,3524.723c0-7.263-3.829-10.785-3.829-10.785H871.09a8.323,8.323,0,0,1,8.4,8.239v5.182a8.322,8.322,0,0,1-8.4,8.238H809.756S813.585,3533.87,813.585,3524.723Z" transform="translate(-808.683 -3473.103)" fill="#f4d9a0"/>
      <path id="Trazado_4404" data-name="Trazado 4404" d="M879.493,3522.177v5.182a8.1,8.1,0,0,1-.245,1.976,17.972,17.972,0,0,0-13.581-11.278c-17.62-3.587-55.911-4.12-55.911-4.12H871.09A8.323,8.323,0,0,1,879.493,3522.177Z" transform="translate(-808.683 -3473.103)" fill="#d4e9f4" style="mix-blend-mode: multiply;isolation: isolate"/>
      <path id="Trazado_4405" data-name="Trazado 4405" d="M790.622,3462.32h4.033a4.652,4.652,0,0,0-2.383-.632H691.241c-5.286,0-9.571,3.332-9.571,7.443v4.726c0,4.11,4.285,7.443,9.571,7.443l99.9-.027Z" transform="translate(-672.025 -3441.992)" fill="#e35b43"/>
      <path id="Trazado_4406" data-name="Trazado 4406" d="M687.1,3461.73c-5.055,0-9.153,3.187-9.153,7.117v5.341c0,3.932,4.1,7.118,9.153,7.118H750v-1.2h-.26l-15.989-1.177-3.232-9.859s6.237-5.447,6.644-5.587,12.576-.567,12.576-.567l.26,0v-1.188Z" transform="translate(-625.865 -3442.018)" fill="#9f4131"/>
      <path id="Trazado_4407" data-name="Trazado 4407" d="M744.5,3473.242a10.865,10.865,0,0,1,3.831-8.558H686.974c-4.643,0-8.407,2.928-8.407,6.538v4.112c0,3.61,3.764,6.537,8.407,6.537h61.358S744.5,3480.5,744.5,3473.242Z" transform="translate(-624.446 -3443.776)" fill="#f4d9a0"/>
      <path id="Trazado_4408" data-name="Trazado 4408" d="M678.567,3471.222v4.112a5.178,5.178,0,0,0,.245,1.567c2.07-3.937,6.036-7.729,13.586-8.948,17.628-2.847,55.934-3.27,55.934-3.27H686.974C682.331,3464.684,678.567,3467.612,678.567,3471.222Z" transform="translate(-624.446 -3443.776)" fill="#d4e9f4" style="mix-blend-mode: multiply;isolation: isolate"/>
    </g>
    <rect id="Rectángulo_758" data-name="Rectángulo 758" width="8.323" height="190.731" transform="matrix(-0.983, 0.186, -0.186, -0.983, 4013.239, -1409.8)" fill="#1a3644"/>
    <path id="Trazado_4409" data-name="Trazado 4409" d="M2083.065,3749.192h-9.837l36.658-189.831,8.178,1.55Z" transform="translate(1650.676 -5156.574)" fill="#1a3644"/>
    <path id="Trazado_4410" data-name="Trazado 4410" d="M1637.925,3749.192h-9.837l36.658-189.831,8.178,1.55Z" transform="translate(2275.907 -5156.574)" fill="#1a3644"/>
    <path id="Trazado_4411" data-name="Trazado 4411" d="M1953.8,3750.447l7.986.1-35.144-189.075-8.178,1.551Z" transform="translate(1869.567 -5157.828)" fill="#1a3644"/>
    <path id="Trazado_4412" data-name="Trazado 4412" d="M1520.175,2926.239c-32.383,3.467-74.292,7.127-116.364,78.522-45.982,78.031-21.777,194.592,14.516,226.982s154.826,72.384,254.468,12.51c0,0,60.165-36.285,29.288-96.5-47.517-92.668-40.8-111.993-62.047-148.309S1588.915,2918.878,1520.175,2926.239Z" transform="translate(2338.871 -4779.11)" fill="#f0d08b"/>
    <path id="Trazado_4413" data-name="Trazado 4413" d="M1452.131,3014.086c28.716-48.73,57.355-65.9,82.941-73-9.9,10.243-19.93,23.417-29.973,40.46-45.982,78.033-21.776,194.591,14.516,226.982,32.184,28.725,129.045,63.417,220.053,29.147a92.485,92.485,0,0,1-18.553,15.9c-99.642,59.873-218.175,19.88-254.468-12.511S1406.149,3092.119,1452.131,3014.086Z" transform="translate(2290.551 -4788.436)" fill="url(#linear-gradient)"/>
    <path id="Trazado_4414" data-name="Trazado 4414" d="M1589.494,3220.595l8.323,24.97-25.366-9.977Z" transform="translate(2373.522 -4954.863)" fill="#ea8779"/>
    <path id="Trazado_4415" data-name="Trazado 4415" d="M1588.815,3036.921c1.691.07,6.325,1.616,13.1,14.379,8.654,16.3,21.3,65.535,21.3,65.535l-37.753,14.012-4.85-10.276-7.988-79.118S1588.346,3036.9,1588.815,3036.921Z" transform="translate(2348.051 -4845.497)" fill="url(#linear-gradient-2)"/>
    <path id="Trazado_4416" data-name="Trazado 4416" d="M1718.7,3019.379c10.8.014,37.507,3.153,49.906,7.1,0,0,9.107,78.014-8.2,137.3-3.874,13.269,3.2,55.009,3.2,55.009l-111.866-1.47S1665,3116.407,1660,3100.107s-5.112-73.1-5.112-73.1.766-.119,25.134-4.317A253.876,253.876,0,0,1,1718.7,3019.379Z" transform="translate(2168.259 -4835.052)" fill="url(#linear-gradient-3)"/>
    <path id="Trazado_4417" data-name="Trazado 4417" d="M1822.838,3870.17s2.474,28.467,7.025,36.35-.24,21.284-.479,23.124-9.579,4.467-24.428,2.89-14.608-4.991-13.411-10.51,9.1-12.613,9.58-17.868-4.55-24.175-4.55-24.175Z" transform="translate(2051.088 -5341.639)" fill="#ea907d"/>
    <path id="Trazado_4418" data-name="Trazado 4418" d="M1551.731,3451.615s77.221-4.273,94.465,6.134-3.117,31.781-3.117,31.781-62.867,27.24-168.115,33.294c-24.924,1.434-27.071-64.766-22.411-70.243S1551.731,3451.615,1551.731,3451.615Z" transform="translate(2367.516 -5091.378)" fill="#0d3ca4"/>
    <path id="Trazado_4419" data-name="Trazado 4419" d="M1800.039,3990.762c-15.289-1.623-13.4-9.109-12.166-14.791.772-3.559,5.158-7.753,7.773-11.72,1.367,1.086,3.589,3,10.229,4.955,6.9,2.03,16.348-1.986,22.37-4.5a73.345,73.345,0,0,1,2.044,19.656C1830.043,3986.253,1815.328,3992.387,1800.039,3990.762Z" transform="translate(2054.152 -5397.657)" fill="#838080"/>
    <path id="Trazado_4420" data-name="Trazado 4420" d="M1854.288,3507.8c3.085,23.267,18.361,139.093,18.361,139.093l-35.444,4.38s-43.587-151.181-41.352-174.305S1814.4,3451.9,1814.4,3451.9,1846.122,3446.206,1854.288,3507.8Z" transform="translate(2008.343 -5092.503)" fill="url(#linear-gradient-4)"/>
    <path id="Trazado_4421" data-name="Trazado 4421" d="M1739.831,2769.032s-11.777-12.416-21.249,2.688c0,0-7.3-4.1-12.416,3.2,0,0-13.185-3.968-16.384,15.744,0,0-6.784-1.279-7.68,6.786a19.954,19.954,0,0,0,3.2,13.439s-3.811,2.858-2.08,10.273c1.472,6.3,6.688,7.264,6.688,7.264s1.408,10.624,6.016,13.824,10.88,1.664,10.88,1.664,1.664,5.76,7.041,5.249,12.033-5.633,18.048-3.329,21.632-.126,21.632-.126,17.537-7.809,12.288-25.729c0,0,9.217-8.321,1.152-18.3,0,0,5.888-15.617-5.76-24.833S1739.831,2769.032,1739.831,2769.032Z" transform="translate(2156.754 -4683.128)" fill="#5c3712"/>
    <path id="Trazado_4422" data-name="Trazado 4422" d="M1777.865,2947.8l2.132,15.816s4.774,22.784-1.368,27.176-26.126-27.826-26.126-27.826l2.111-40.075Z" transform="translate(2116.729 -4777.598)" fill="#ea907d"/>
    <path id="Trazado_4423" data-name="Trazado 4423" d="M1757.676,2935.875c5.075,13.668,17.162,22.07,25.741,25.33l-1.807-13.409-23.252-24.909Z" transform="translate(2112.986 -4777.598)" fill="#e35b43"/>
    <path id="Trazado_4424" data-name="Trazado 4424" d="M1732.568,2817.14a21.136,21.136,0,0,1,27.66,16.843,159.762,159.762,0,0,1,1.715,20.29c.335,18.473-9.226,36.45-17.615,36.45s-31.57-11.958-32.408-38.181C1711.4,2836.351,1719.484,2821.643,1732.568,2817.14Z" transform="translate(2152.973 -4713.952)" fill="#ea907d"/>
    <path id="Trazado_4425" data-name="Trazado 4425" d="M1832.354,2900.59c0,4.075-2.7,7.378-6.034,7.378s-6.033-3.3-6.033-7.378,2.7-7.378,6.033-7.378S1832.354,2896.516,1832.354,2900.59Z" transform="translate(2038.719 -4759.927)" fill="#ea907d"/>
    <path id="Trazado_4426" data-name="Trazado 4426" d="M1699.068,2787.8c8.664,6.864,11.7,17.292,6.782,23.295s-15.93,5.3-24.594-1.562-11.7-17.293-6.781-23.294S1690.4,2780.935,1699.068,2787.8Z" transform="translate(2209.094 -4687.923)" fill="#5c3712"/>
    <path id="Trazado_4427" data-name="Trazado 4427" d="M1637.973,3059.487c10.459-3.911,15.576,90.009,16.986,128.668,18.522,1.777,50.806.014,58.845-.587,3.781-.284,12.5-3.466,16.257-3.957,3.854-.5,7.346-.764,9.24-.437.7.122,20,7.989,21.654,9.716,2.048,2.138,7.585,7.536,6.651,9.871s-10.65-6.5-10.65-6.5l-4.748-2.655c5.91,5.753,17.184,13.334,15.56,16.092-1.584,2.691-11.753-5-19-10.241,6.217,5.6,13.94,15.609,12.161,17.171-1.6,1.4-10.384-10.189-19.773-13.529-3.479-1.237-6.947,2.188-9.684,2.6-2.011.3-5.116.951-7.09.395l-10.165-2.875c-3.463.313-3.55,2.354-7.047,3.1-4.06.86-10.72,1.766-15.89,3.024-29.771,7.25-39.7,10.616-48.816,10.612C1614.855,3219.937,1613.254,3068.728,1637.973,3059.487Z" transform="translate(2183.962 -4858.863)" fill="#ea907d"/>
    <path id="Trazado_4428" data-name="Trazado 4428" d="M1886.7,3134.747c-1.96-39.6-1.674-88.405,20.6-96.732,8.788-3.285,24.281,16.47,21.494,97.537C1916.9,3136.529,1899.447,3137.317,1886.7,3134.747Z" transform="translate(1915.386 -4845.946)" fill="url(#linear-gradient-2)"/>
    <path id="Trazado_4429" data-name="Trazado 4429" d="M1719.2,3235.557h-2.27l-34.131,83.592,2.351-.357Z" transform="translate(2207.493 -4963.771)" fill="#ea8779"/>
    <path id="Trazado_4430" data-name="Trazado 4430" d="M1493.84,3930.357s-3.093,9.882,2.445,16.416,28.549,12.948,31.569,16.486,2.792,6.555,2.792,6.555l-64.586-1.772.7-19.438,2.974-13.97Z" transform="translate(2483.731 -5377.476)" fill="#ea907d"/>
    <path id="Trazado_4431" data-name="Trazado 4431" d="M1479.283,3976.811s-16.595,6.69-24.611,2.73-7.774-5.059-10.094-3.582-3.15,19.7-3.15,19.7l72.624,2.127c5.055-.116,7.609-3.825,3.5-7a59.1,59.1,0,0,0-7.918-4.692C1503.956,3982.847,1479.283,3976.811,1479.283,3976.811Z" transform="translate(2504.75 -5404.254)" fill="#838080"/>
    <path id="Trazado_4432" data-name="Trazado 4432" d="M1446.642,3472.186c4.991-10.468,16.345-24.1,36.321-15.89,19.052,7.832,24.166,27.074,18.155,46.779s-45.584,135.544-46.964,151.472l-31.6.208s5.742-91.724,7.151-113.895C1431.064,3519.529,1438,3490.306,1446.642,3472.186Z" transform="translate(2528.48 -5093.708)" fill="url(#linear-gradient-6)"/>
    <path id="Trazado_4433" data-name="Trazado 4433" d="M1624.96,3235.557H1519.341a6.888,6.888,0,0,0-6.372,4.274l-32.521,79.318H1422.22a2.947,2.947,0,0,0-2.949,2.945h0a2.947,2.947,0,0,0,2.949,2.947h165.723a11.569,11.569,0,0,0,10.554-6.831l32.746-72.946A6.887,6.887,0,0,0,1624.96,3235.557Z" transform="translate(2401.456 -4963.771)" fill="url(#linear-gradient-7)"/>
    <path id="Trazado_4434" data-name="Trazado 4434" d="M1587.953,3338.417c-.713,3.565-3.821,5.947-6.941,5.322s-5.071-4.017-4.358-7.58,3.822-5.946,6.942-5.321S1588.667,3334.855,1587.953,3338.417Z" transform="translate(2381.598 -5020.445)" fill="#fff"/>
    <ellipse id="Elipse_80" data-name="Elipse 80" cx="60.402" cy="60.528" rx="60.402" ry="60.528" transform="translate(3552.535 -2030.126)" fill="#e7e7e7" opacity="0.3"/>
    <g id="Grupo_4520" data-name="Grupo 4520" transform="translate(3547.84 -2034.237)">
      <g id="Grupo_4519" data-name="Grupo 4519" transform="translate(0 0)">
        <g id="Grupo_4513" data-name="Grupo 4513" transform="translate(107.791 63.447)">
          <rect id="Rectángulo_759" data-name="Rectángulo 759" width="22.268" height="1.714" fill="#838080"/>
        </g>
        <g id="Grupo_4514" data-name="Grupo 4514" transform="translate(0 63.447)">
          <rect id="Rectángulo_760" data-name="Rectángulo 760" width="22.268" height="1.714" fill="#838080"/>
        </g>
        <g id="Grupo_4515" data-name="Grupo 4515" transform="translate(64.336)">
          <rect id="Rectángulo_761" data-name="Rectángulo 761" width="1.711" height="22.314" transform="translate(0)" fill="#838080"/>
        </g>
        <g id="Grupo_4516" data-name="Grupo 4516" transform="translate(64.336 107.583)">
          <rect id="Rectángulo_762" data-name="Rectángulo 762" width="1.711" height="22.314" transform="translate(0)" fill="#838080"/>
        </g>
        <path id="Trazado_4435" data-name="Trazado 4435" d="M2453.781,2636.192a1.843,1.843,0,1,0,1.844-1.847A1.846,1.846,0,0,0,2453.781,2636.192Z" transform="translate(-2390.526 -2571.554)" fill="#838080"/>
        <g id="Grupo_4517" data-name="Grupo 4517" transform="translate(64.274 30.623)">
          <path id="Trazado_4436" data-name="Trazado 4436" d="M2375.259,2589.673a.819.819,0,0,0,.582-.242l33.12-33.189a.824.824,0,0,0-1.164-1.168l-33.121,33.189a.826.826,0,0,0,.583,1.41Z" transform="translate(-2374.434 -2554.832)" fill="#838080"/>
        </g>
        <g id="Grupo_4518" data-name="Grupo 4518" transform="translate(53.58 64.639)">
          <path id="Trazado_4437" data-name="Trazado 4437" d="M2458.251,2672.452a.6.6,0,0,0,.3-.348l10.705-32.4a.6.6,0,1,0-1.137-.377l-10.706,32.4a.6.6,0,0,0,.838.724Z" transform="translate(-2457.382 -2638.91)" fill="#838080"/>
        </g>
      </g>
    </g>
    <g id="Grupo_4521" data-name="Grupo 4521" transform="translate(3516.156 -1779.997)">
      <path id="Trazado_4438" data-name="Trazado 4438" d="M2238.611,3400.695c.776-6.854,1.7-13.866,4.878-19.983,3.869-7.437,10.664-12.8,16.6-18.713a103.821,103.821,0,0,0,24.755-39.458c3.961-11.449,5.937-23.646,11.4-34.458,3.333-6.6,7.88-12.5,11.668-18.854,8.95-15.013,13.822-32.755,25.959-45.321a54.479,54.479,0,0,1-12.3,43.093c-2.989,3.486-6.457,6.629-8.734,10.619-4.134,7.243-3.756,16.081-4.242,24.411a107.19,107.19,0,0,1-12.818,44.864c-7.963,14.623-19.458,27.645-23.715,43.749-3.191,12.067-2.243,25.6-9.046,36.061a9.229,9.229,0,0,0-1.761,3.613,7.875,7.875,0,0,0,.134,2.267q.228,1.458.457,2.915c1.548,9.876,3.146,22.444-5.34,29.836-5.882,5.123-13.453,5.236-17.677-1.568-4.254-6.852-3.876-16.879-3.56-24.59C2235.79,3426.335,2237.165,3413.458,2238.611,3400.695Z" transform="translate(-2147.365 -3176.838)" fill="#e7e7e7"/>
      <path id="Trazado_4439" data-name="Trazado 4439" d="M2399.062,3323.473c3.3-11.433,8.426-22.322,10.995-33.943,2.491-11.271,2.51-22.924,2.519-34.469q.012-18.976.027-37.951c.005-7.876.015-15.795,1.316-23.562,2.8-16.711,11.486-32.164,12.957-49.045.636-7.3-.1-14.679.7-21.962a34.58,34.58,0,0,1,3.452-12.1,5.389,5.389,0,0,1,9.671.272c4.219,9.141,6.895,19.021,5.19,28.814-1.022,5.874-3.567,11.353-5.467,17-8.459,25.167-3.968,53.025-10.514,78.758-1.975,7.768-4.964,15.384-5.31,23.393-.833,19.167,13.481,36.675,12.168,55.814-1.075,15.693-12.357,28.68-17.094,43.675-2.65,8.4-3.217,17.355-6.058,25.69-2.207,6.474-7.338,14.336-15.309,12.371-7.566-1.866-5.281-8.043-4.942-13.943C2394.506,3362.333,2393.43,3342.97,2399.062,3323.473Z" transform="translate(-2323.103 -3107.561)" fill="url(#linear-gradient-8)"/>
      <path id="Trazado_4440" data-name="Trazado 4440" d="M2494.523,3350.735c.333-5.94,1.336-11.914.5-17.806-.7-4.976-2.682-9.665-4.1-14.486-2.649-9.034-3.307-18.516-3.948-27.911q-1.751-25.616-3.5-51.231c-1.813-26.545-3.635-53.166-8.6-79.3-1.378-7.257-2.925-15.12.336-21.747.688-1.4,2.042-2.878,3.524-2.412,1.057.33,1.576,1.494,1.958,2.535,10.849,29.484,14.95,61.228,27.06,90.216,2.9,6.944,6.275,13.775,7.777,21.151,1.8,8.857.813,18.006.581,27.042a127.586,127.586,0,0,0,4.506,38.478c1.873,6.518,4.38,12.89,5.406,19.594,1.278,8.36.2,16.876-.6,25.3a388.64,388.64,0,0,0-1.561,48.722c.294,9.556-7.771,9.3-13.115,3.434-3.735-4.1-3.7-8.611-4.98-13.722C2501.575,3381.808,2493.5,3368.925,2494.523,3350.735Z" transform="translate(-2435.884 -3124.346)" fill="#e7e7e7"/>
      <path id="Trazado_4441" data-name="Trazado 4441" d="M2312.643,3650.62c7.133-11.458,21.34-17.973,25.9-30.683,1.161-3.234,1.613-6.712,3.032-9.842,3.147-6.951,10.3-10.879,17.337-14.077a1.488,1.488,0,0,1,2.1,1.339h0a5.084,5.084,0,0,1-2.2,4.292,28.531,28.531,0,0,0-11.371,15.51c-2.173,7.448-1.23,15.613-3.932,22.886-2.268,6.106-6.936,11.1-9.127,17.231-2.006,5.606-1.794,11.732-2.736,17.612s-3.554,12.12-8.953,14.608C2303.155,3698.5,2308.036,3658.025,2312.643,3650.62Z" transform="translate(-2203.615 -3398.324)" fill="url(#linear-gradient-9)"/>
      <path id="Trazado_4442" data-name="Trazado 4442" d="M2569.07,3609.079c.3,5.541-.543,11.349,1.625,16.456,1.387,3.267,3.882,5.907,5.93,8.8,7.192,10.172,9.8,24.585,20.85,30.312a3.773,3.773,0,0,0,2.35.565,3.6,3.6,0,0,0,2.329-2.364c2.708-6.311-.331-13.421-2.13-20.052a4.914,4.914,0,0,1-.026-3.519c.608-1.174,1.994-1.682,2.941-2.6,1.889-1.836,1.71-4.875,1.335-7.484a169.61,169.61,0,0,0-3.942-19.353,33.888,33.888,0,0,0-4.142-10.351c-2.29-3.411-5.615-5.959-8.729-8.637a103.453,103.453,0,0,1-30.2-44.58c-1.277-3.719-2.416-7.647-5.054-10.56s-7.34-4.413-10.553-2.152c-2.286,1.608,7.077,16.669,8.168,18.476,3.12,5.161,3.161,9.651,4.925,15.383C2559.067,3581.462,2568.244,3594.032,2569.07,3609.079Z" transform="translate(-2541.296 -3360.563)" fill="#e7e7e7"/>
      <path id="Trazado_4443" data-name="Trazado 4443" d="M2519.633,3542.189c-2.044-5.286-4.106-10.639-4.779-16.267-.748-6.256.245-12.654-.824-18.864-1.374-7.982-6.028-15-8.332-22.77-1.664-5.607-2.073-11.5-3.072-17.263-2.858-16.481-10.608-32.586-8.383-49.165.483-3.606,2.112-7.81,5.691-8.425,3.24-.556,6.189,2.406,7.032,5.59s.214,6.542-.018,9.828a40.567,40.567,0,0,0,7.267,26.02c5.09,7.2,12.475,12.625,17.056,20.164,5.618,9.247,6.383,20.535,9.25,30.973,5.7,20.755,20,38.862,22.609,60.232,1.038,8.5-.958,18.841-8.807,22.237C2531.626,3594.3,2524.774,3555.486,2519.633,3542.189Z" transform="translate(-2480.968 -3287.266)" fill="url(#linear-gradient-10)"/>
      <path id="Trazado_4444" data-name="Trazado 4444" d="M2415.5,3802.785h52.09a5.523,5.523,0,0,1,5.365,6.8l-18.987,80.07a5.518,5.518,0,0,1-5.366,4.249h-62.572a5.517,5.517,0,0,1-5.365-4.249l-18.989-80.07a5.524,5.524,0,0,1,5.367-6.8Z" transform="translate(-2337.156 -3521.52)" fill="url(#linear-gradient-11)"/>
    </g>
    <g id="Grupo_4522" data-name="Grupo 4522" transform="translate(4077.919 -1592.447)">
      <rect id="Rectángulo_764" data-name="Rectángulo 764" width="165.542" height="11.443" transform="translate(83.08 75.861)" fill="url(#linear-gradient-12)"/>
      <rect id="Rectángulo_765" data-name="Rectángulo 765" width="10.68" height="178.36" transform="translate(24.848 6.539)" fill="url(#linear-gradient-12)"/>
      <rect id="Rectángulo_766" data-name="Rectángulo 766" width="10.68" height="178.36" transform="translate(175.896 6.539)" fill="url(#linear-gradient-12)"/>
      <path id="Trazado_4445" data-name="Trazado 4445" d="M968.3,3763.406l-57.535-176.826,9.431-3.069,58.533,179.895Z" transform="translate(-856.804 -3578.508)" fill="url(#linear-gradient-12)"/>
      <path id="Trazado_4446" data-name="Trazado 4446" d="M560.267,3763.448l-49.21-177.213,9.556-2.654,49.947,179.867Z" transform="translate(-286.926 -3578.548)" fill="url(#linear-gradient-12)"/>
      <rect id="Rectángulo_763" data-name="Rectángulo 763" width="253.2" height="13.077" transform="translate(0)" fill="url(#linear-gradient-12)"/>
    </g>
    <path id="Trazado_4447" data-name="Trazado 4447" d="M2354.513,2464.18a70.691,70.691,0,1,1-70.543,70.689A70.617,70.617,0,0,1,2354.513,2464.18Zm-3.783,131.1a60.528,60.528,0,1,0-56.5-64.2A60.445,60.445,0,0,0,2350.73,2595.279Z" transform="translate(1258.425 -4504.468)" fill="#838080"/>
    <path id="Trazado_4449" data-name="Trazado 4449" d="M1162.986,0H0V7.888H1162.986Z" transform="translate(3443.18 -1408.641)" fill="#d0cece"/>
    <path id="Trazado_4448" data-name="Trazado 4448" d="M1752.913,2949.629l-16.238-.265s.273,6.175,7.411,6.5C1752.789,2956.254,1752.913,2949.629,1752.913,2949.629Z" transform="translate(2151.986 -4793.363)" fill="#fff"/>
  </g>
</svg>
