<svg xmlns="http://www.w3.org/2000/svg" width="73.619" height="72.312" viewBox="0 0 73.619 72.312">
  <g id="EMPRE_ICON" transform="translate(-292.278 -636.623)">
    <g id="Grupo_2259" data-name="Grupo 2259" transform="translate(296.167 677.916)">
      <path id="Trazado_3208" data-name="Trazado 3208" d="M318.421,712.154a14.792,14.792,0,0,0-3.487-1.571,7.122,7.122,0,1,0-6.715.007,14.809,14.809,0,0,0-3.461,1.564c-4.685,2.85-6.775,7.365-6.775,14.639a1.43,1.43,0,0,0,2.86,0c0-7.852,2.731-10.571,5.4-12.2a9.429,9.429,0,0,1,10.691,0,1.43,1.43,0,0,0,1.486-2.443Zm-11.1-7.837a4.253,4.253,0,1,1,.453,1.919A4.259,4.259,0,0,1,307.317,704.317Z" transform="translate(-297.983 -697.204)" fill="#7339ee"/>
      <path id="Trazado_3209" data-name="Trazado 3209" d="M377.937,712.154a14.831,14.831,0,0,0-3.462-1.564,7.136,7.136,0,1,0-6.714-.006,14.79,14.79,0,0,0-3.487,1.57,1.43,1.43,0,0,0,1.486,2.443,9.423,9.423,0,0,1,10.691,0c2.671,1.625,5.4,4.345,5.4,12.2a1.43,1.43,0,0,0,2.86,0C384.712,719.519,382.623,715,377.937,712.154Zm-11.074-7.837a4.251,4.251,0,1,1,.453,1.919A4.262,4.262,0,0,1,366.863,704.317Z" transform="translate(-318.87 -697.204)" fill="#7339ee"/>
      <path id="Trazado_3210" data-name="Trazado 3210" d="M346.784,712.154a14.8,14.8,0,0,0-3.487-1.571,7.121,7.121,0,1,0-6.714.007,14.827,14.827,0,0,0-3.461,1.564c-4.685,2.85-6.775,7.365-6.775,14.639a1.43,1.43,0,0,0,2.86,0c0-7.852,2.731-10.571,5.4-12.2a9.422,9.422,0,0,1,10.69,0c2.671,1.625,5.4,4.345,5.4,12.2a1.43,1.43,0,0,0,2.86,0C353.559,719.519,351.469,715,346.784,712.154Zm-11.1-7.837a4.252,4.252,0,1,1,.453,1.919A4.259,4.259,0,0,1,335.68,704.317Z" transform="translate(-307.013 -697.204)" fill="#7339ee"/>
    </g>
    <path id="Trazado_3211" data-name="Trazado 3211" d="M356.919,649.382a1.42,1.42,0,0,0-.3-.344,36.737,36.737,0,0,0-55.543.551,1.4,1.4,0,0,0-.266.306,36.775,36.775,0,0,0-2.689,43.448,1.43,1.43,0,0,0,2.4-1.549,33.794,33.794,0,0,1-5.338-16.932h7.405c.012.859.044,1.476.141,2.6a1.431,1.431,0,0,0,1.423,1.306c.041,0,.083,0,.125-.006a1.429,1.429,0,0,0,1.3-1.547c-.089-1.027-.121-1.568-.132-2.351h10.363c-.016,1.689.014,2.7.09,4.542a1.429,1.429,0,0,0,1.427,1.372h.059a1.43,1.43,0,0,0,1.371-1.487c-.072-1.78-.1-2.728-.087-4.426H339.49c.014,1.622.009,3.217-.035,4.73a1.431,1.431,0,0,0,1.388,1.471h.042a1.43,1.43,0,0,0,1.428-1.388c.045-1.542.05-3.163.035-4.814h10.359c-.018.744-.043,1.48-.087,2.194a1.43,1.43,0,0,0,1.339,1.515c.03,0,.059,0,.089,0a1.429,1.429,0,0,0,1.425-1.342c.048-.772.075-1.566.093-2.369h7.419a33.771,33.771,0,0,1-5.476,17.146,1.43,1.43,0,1,0,2.392,1.566,36.759,36.759,0,0,0-2.983-44.192ZM318.684,672a93.2,93.2,0,0,1,.937-15.1,69.931,69.931,0,0,0,8.665.557h.008a69.57,69.57,0,0,0,10.226-.77A92.31,92.31,0,0,1,339.491,672Zm-16.219-19.6c1.2.5,2.433.98,3.7,1.413.087.03.183.058.271.088a44.174,44.174,0,0,0-3.819,18.1h-7.441A33.767,33.767,0,0,1,302.466,652.4Zm25.829,2.2h-.008a67.007,67.007,0,0,1-8.156-.515c2.676-12.83,8.165-14.428,8.967-14.591.757.153,6.2,1.73,8.9,14.384A66.738,66.738,0,0,1,328.294,654.6Zm8.409-12.168a27.181,27.181,0,0,1,10.54,9.393,65.034,65.034,0,0,1-6.443,1.581A33.392,33.392,0,0,0,336.7,642.435ZM317.319,653.68a63.963,63.963,0,0,1-6.631-1.459,27.179,27.179,0,0,1,10.784-9.786A33.7,33.7,0,0,0,317.319,653.68Zm-8.064,1.1a66.509,66.509,0,0,0,7.552,1.71,95.331,95.331,0,0,0-.979,15.51H305.475C305.647,664.721,307.109,659.114,309.254,654.782Zm32.068,1.437a67.663,67.663,0,0,0,7.4-1.856c2.258,4.386,3.8,10.126,3.982,17.64H342.349A94.4,94.4,0,0,0,341.323,656.219Zm10.19-2.788c1.32-.481,2.585-1,3.8-1.538A33.784,33.784,0,0,1,363,672H355.56C355.387,664.164,353.821,658.115,351.512,653.431Zm1.778-3.776c-1.02.434-2.081.846-3.176,1.236a29.046,29.046,0,0,0-8.855-9.143A34.034,34.034,0,0,1,353.29,649.655Zm-36.373-7.908a29.029,29.029,0,0,0-9.134,9.59c-.225-.075-.461-.145-.682-.224-.908-.31-1.794-.644-2.664-.989A34.048,34.048,0,0,1,316.917,641.747Z" fill="#7339ee"/>
  </g>
</svg>
