<svg xmlns="http://www.w3.org/2000/svg" width="60" height="42.513" viewBox="0 0 60 42.513">
  <g id="ICON_4" transform="translate(0 0)">
    <path id="Trazado_4053" data-name="Trazado 4053" d="M2311.429,390.663a1.443,1.443,0,1,0,2.887,0,13.69,13.69,0,0,0-2.869-8.43A1.443,1.443,0,0,0,2309.16,384,10.826,10.826,0,0,1,2311.429,390.663Z" transform="translate(-2259.583 -359.187)" fill="#fff"/>
    <path id="Trazado_4054" data-name="Trazado 4054" d="M1877.357,216.344a45.065,45.065,0,0,0,13.846,3.783,80.964,80.964,0,0,0,20.476,0,45.063,45.063,0,0,0,13.846-3.783c4.889-2.442,5.916-5.108,5.916-6.914a15.616,15.616,0,0,0-10.585-14.765,8.966,8.966,0,1,0-10.01,0,15.5,15.5,0,0,0-4.812,2.66,6.615,6.615,0,0,0-9.185,0,15.513,15.513,0,0,0-4.813-2.66,8.965,8.965,0,1,0-10.01,0,15.616,15.616,0,0,0-10.584,14.734c0,.011,0,.02,0,.031C1871.441,211.236,1872.468,213.9,1877.357,216.344Zm15.177,1.576v-.289a8.908,8.908,0,0,1,17.815,0v.289a78.945,78.945,0,0,1-17.815,0Zm16.706-30.69a6.613,6.613,0,1,1,6.613,6.612A6.62,6.62,0,0,1,1909.24,187.23Zm19.848,22.2c0,1.615-1.639,3.323-4.614,4.809a40.813,40.813,0,0,1-11.772,3.366,11.278,11.278,0,0,0-7.033-10.409,6.622,6.622,0,0,0,1.748-7.964,13.235,13.235,0,0,1,21.671,10.2Zm-27.647-11.607a4.276,4.276,0,0,1,3.511,1.838h0a4.272,4.272,0,1,1-3.512-1.839Zm-21.024-10.593a6.612,6.612,0,1,1,6.612,6.612A6.62,6.62,0,0,1,1880.418,187.23Zm6.612,8.965a13.173,13.173,0,0,1,8.437,3.037,6.625,6.625,0,0,0,1.747,7.964,11.278,11.278,0,0,0-7.032,10.41,40.821,40.821,0,0,1-11.773-3.366c-2.967-1.482-4.6-3.184-4.614-4.8,0,0,0-.009,0-.014A13.25,13.25,0,0,1,1887.029,196.195Z" transform="translate(-1871.441 -178.264)" fill="#fff"/>
    <path id="Trazado_4055" data-name="Trazado 4055" d="M2288.466,364.884a1.444,1.444,0,0,0,0-2.887A1.444,1.444,0,0,0,2288.466,364.884Z" transform="translate(-2240.927 -340.752)" fill="#fff"/>
  </g>
</svg>
