<svg xmlns="http://www.w3.org/2000/svg" width="93.5" height="60.851" viewBox="0 0 93.5 60.851">
  <g id="FAMILIA_CION" transform="translate(-686.129 -260.482)">
    <g id="Grupo_2250" data-name="Grupo 2250" transform="translate(722.22 274.044)">
      <path id="Trazado_3202" data-name="Trazado 3202" d="M771.314,307.95H766.1a1.363,1.363,0,0,1-.849-.3,3.134,3.134,0,0,1-1.3-2.24,3.266,3.266,0,0,1,.99-2.475c.023-.025.047-.049.073-.073.089-.082.165-.146.215-.188a2.025,2.025,0,0,0,.589-1.443,2,2,0,0,0-1.1-1.806c-.034-.017-.068-.036-.1-.055a1.527,1.527,0,0,1-.2-.079l-.085-.027a1.943,1.943,0,0,0-.83-.1,2.059,2.059,0,0,0-1.838,1.808,2.034,2.034,0,0,0,.593,1.691c.039.034.1.089.168.159a3.359,3.359,0,0,1,1.089,2.524,3.128,3.128,0,0,1-1.344,2.315,1.361,1.361,0,0,1-.835.286h-5.252a5.621,5.621,0,0,1-5.6-5,5.758,5.758,0,0,1-.036-.631v-4.739l-.05-.018a.89.89,0,0,0-.372.238s-.037.047-.047.06c-.027.034-.06.073-.09.1a4.79,4.79,0,0,1-4.863,1.26,2.954,2.954,0,0,1-.48-.183,4.776,4.776,0,0,1-.224-8.658,2.117,2.117,0,0,1,.287-.134c.1-.041.2-.079.295-.113l.122-.042a4.8,4.8,0,0,1,4.863,1.251,1.384,1.384,0,0,1,.109.13,1.024,1.024,0,0,0,.413.277l.017-.007.02-.011v-4.743a5.932,5.932,0,0,1,.031-.606c0-.023,0-.045.006-.066a5.64,5.64,0,0,1,5.6-4.962h15.229a5.635,5.635,0,0,1,5.624,5.634,1.363,1.363,0,1,1-2.726,0,2.907,2.907,0,0,0-2.9-2.908H756.085A2.913,2.913,0,0,0,753.2,286.6l0,.031a3.275,3.275,0,0,0-.02.352v5.3a1.359,1.359,0,0,1-.3.849,4.6,4.6,0,0,1-.746.756,2.894,2.894,0,0,1-.38.237,2.084,2.084,0,0,1-.272.13h0l-.045.018h0a3.028,3.028,0,0,1-3.351-.88,1.9,1.9,0,0,1-.2-.212,2.043,2.043,0,0,0-2.055-.486c-.049.019-.1.034-.142.055l-.062.026c-.022.013-.045.024-.068.035a2.051,2.051,0,0,0,.1,3.732l.129.057a2.243,2.243,0,0,0,.663.107,2.031,2.031,0,0,0,1.443-.6c.043-.052.107-.129.191-.219a3.137,3.137,0,0,1,3.181-.924l.064.023.046.014a1.957,1.957,0,0,1,.421.193,3.753,3.753,0,0,1,1.091.972,1.36,1.36,0,0,1,.3.847v5.3a2.8,2.8,0,0,0,.018.326,2.9,2.9,0,0,0,2.889,2.582h4.7a.226.226,0,0,0,.015-.033.939.939,0,0,0-.283-.428c-.025-.02-.1-.09-.12-.112a4.732,4.732,0,0,1-1.436-3.971,4.82,4.82,0,0,1,4.3-4.229,4.656,4.656,0,0,1,1.917.221,2.04,2.04,0,0,1,.348.122l.058.021a2.779,2.779,0,0,1,.42.207,4.772,4.772,0,0,1,1.077,7.658c-.034.032-.07.064-.107.093a.987.987,0,0,0-.075.064.812.812,0,0,0-.227.377l0,.009h4.643a2.907,2.907,0,0,0,2.9-2.908,1.363,1.363,0,0,1,2.726,0A5.636,5.636,0,0,1,771.314,307.95Z" transform="translate(-741.674 -281.354)" fill="#7339ee"/>
    </g>
    <g id="Grupo_2251" data-name="Grupo 2251" transform="translate(707.191 265.284)">
      <path id="Trazado_3203" data-name="Trazado 3203" d="M739.506,303.147H724.177a5.64,5.64,0,0,1-5.633-5.634,1.363,1.363,0,1,1,2.726,0,2.911,2.911,0,0,0,2.907,2.907h15.329a2.907,2.907,0,0,0,2.883-2.519,2.535,2.535,0,0,0,.025-.388v-4.635l-.011-.006h0a.943.943,0,0,0-.39.25c-.019.02-.046.05-.056.062-.023.028-.056.066-.08.092a4.838,4.838,0,0,1-4.96,1.221,3.357,3.357,0,0,1-.466-.18,4.732,4.732,0,0,1-2.233-2.115,2.707,2.707,0,0,1-.212-.436c-.007-.019-.014-.037-.021-.057a2.352,2.352,0,0,1-.094-.26,4.65,4.65,0,0,1-.247-1.985,4.85,4.85,0,0,1,2.594-3.812,1.474,1.474,0,0,1,.227-.11,2.543,2.543,0,0,1,.463-.175,4.541,4.541,0,0,1,.94-.213,4.753,4.753,0,0,1,3.978,1.447s.06.062.151.163a.9.9,0,0,0,.372.233l.046-.023v-4.683a2.019,2.019,0,0,0-.019-.322,2.92,2.92,0,0,0-2.889-2.586h-5.3a1.362,1.362,0,0,1-.837-.287,3.156,3.156,0,0,1-1.344-2.278,3.264,3.264,0,0,1,1-2.476c.118-.118.212-.2.272-.254a2.029,2.029,0,0,0,.6-1.447,2.053,2.053,0,0,0-4.107,0,2.025,2.025,0,0,0,.589,1.442,2.922,2.922,0,0,1,.262.254,3.309,3.309,0,0,1,1.017,2.445,3.138,3.138,0,0,1-1.354,2.317,1.367,1.367,0,0,1-.832.283h-5.3a2.911,2.911,0,0,0-2.907,2.908,1.363,1.363,0,1,1-2.726,0,5.639,5.639,0,0,1,5.633-5.634h4.745a.154.154,0,0,0,.018-.038.865.865,0,0,0-.253-.387l-.065-.067a.728.728,0,0,1-.09-.078,4.728,4.728,0,0,1-1.464-3.446,4.779,4.779,0,1,1,8.084,3.446c-.034.033-.07.064-.107.092,0,0-.03.027-.071.068a.8.8,0,0,0-.228.373.17.17,0,0,0,.018.037h4.741a5.637,5.637,0,0,1,5.587,4.928,4.666,4.666,0,0,1,.047.706v5.252a1.363,1.363,0,0,1-.29.841,3.6,3.6,0,0,1-1.187,1.014,1.951,1.951,0,0,1-.282.136,3.1,3.1,0,0,1-3.38-.914l-.112-.122a2.024,2.024,0,0,0-1.721-.636,1.776,1.776,0,0,0-.381.091,1.357,1.357,0,0,1-.133.04,1.024,1.024,0,0,1-.148.068,2.139,2.139,0,0,0-1.15,1.652,1.893,1.893,0,0,0,.1.81c.005.016.022.069.033.1a1.34,1.34,0,0,1,.07.171c.023.039.04.073.062.118a2,2,0,0,0,.962.922l.1.044a.924.924,0,0,1,.116.036,2.053,2.053,0,0,0,2.075-.494c.047-.056.123-.142.22-.24a3.192,3.192,0,0,1,2.951-.967,1.392,1.392,0,0,1,.181.056c.03.008.058.018.083.027a3.515,3.515,0,0,1,1.537,1.16,1.366,1.366,0,0,1,.3.848v5.207a5.21,5.21,0,0,1-.051.767A5.634,5.634,0,0,1,739.506,303.147Z" transform="translate(-718.544 -267.873)" fill="#7339ee"/>
    </g>
    <g id="Grupo_2254" data-name="Grupo 2254" transform="translate(745.273 260.671)">
      <g id="Grupo_2252" data-name="Grupo 2252" transform="translate(16.387 0)">
        <path id="Trazado_3204" data-name="Trazado 3204" d="M809.216,274.464a6.845,6.845,0,1,1,6.845-6.845A6.853,6.853,0,0,1,809.216,274.464Zm0-10.965a4.12,4.12,0,1,0,4.119,4.12A4.124,4.124,0,0,0,809.216,263.5Z" transform="translate(-802.371 -260.773)" fill="#7339ee"/>
      </g>
      <g id="Grupo_2253" data-name="Grupo 2253" transform="translate(0 13.645)">
        <path id="Trazado_3205" data-name="Trazado 3205" d="M797.1,328.79c-1.15,0-2.782-.623-4.031-3.591-.015-.036-.028-.072-.041-.11l-3.216-9.958a1.345,1.345,0,0,1-.062-.324,5.491,5.491,0,0,1,.234-2.038,1.444,1.444,0,0,1,.114-.259l5.38-9.452a5.376,5.376,0,0,1-.162-1.331v-5.684l-1.054,1.051a1.365,1.365,0,0,1-.963.4H780.8a3.671,3.671,0,0,1,0-7.342h10.021l4.822-4.822A5.452,5.452,0,0,1,806.2,287.18v18.75a4.689,4.689,0,0,1-.233,1.844l.42,5.517a2.632,2.632,0,0,0,.277.994l4.209,8.5a4.4,4.4,0,0,1,.446,3.465,3.413,3.413,0,0,1-1.823,1.932,3.348,3.348,0,0,1-1.646.436c-1.044,0-2.535-.481-3.718-2.778l-4.458-9.227a5.5,5.5,0,0,1-.539-1.955l-.238-2.977-1.726,2.665a3.265,3.265,0,0,0-.077.756l2.878,8.185c.5,1.713,1.114,3.843-1.433,5.134A2.949,2.949,0,0,1,797.1,328.79Zm-1.5-4.6c.63,1.474,1.235,1.87,1.5,1.87a.271.271,0,0,0,.109-.021c.624-.313.635-.318.148-2l-.09-.308-2.808-7.916a1.371,1.371,0,0,1-.075-.361,5.967,5.967,0,0,1,.211-2.034,1.372,1.372,0,0,1,.168-.372l3.508-5.416a1.689,1.689,0,0,1,3.1.766l.483,6.027a2.766,2.766,0,0,0,.27.98l4.451,9.213c.41.8.882,1.269,1.279,1.269a.621.621,0,0,0,.276-.067.863.863,0,0,1,.16-.087.8.8,0,0,0,.461-.394,2.072,2.072,0,0,0-.313-1.344l-4.2-8.484a5.332,5.332,0,0,1-.564-2.006l-.447-5.87a1.369,1.369,0,0,1,.14-.713c.1-.209.111-.222.111-1V287.18a2.725,2.725,0,0,0-5.333-.744,1.351,1.351,0,0,1-.346.59l-5.452,5.452a1.363,1.363,0,0,1-.964.4H780.8a.945.945,0,0,0,0,1.89h11.94l2.98-2.973a1.363,1.363,0,0,1,2.326.965v8.969a2.5,2.5,0,0,0,.176.953,1.364,1.364,0,0,1-.072,1.2l-5.6,9.839a2.749,2.749,0,0,0-.083.744Z" transform="translate(-777.152 -281.773)" fill="#7339ee"/>
      </g>
    </g>
    <g id="Grupo_2257" data-name="Grupo 2257" transform="translate(686.129 260.482)">
      <g id="Grupo_2255" data-name="Grupo 2255" transform="translate(4.284)">
        <path id="Trazado_3206" data-name="Trazado 3206" d="M699.566,274.173a6.846,6.846,0,1,1,6.846-6.845A6.853,6.853,0,0,1,699.566,274.173Zm0-10.965a4.12,4.12,0,1,0,4.12,4.12A4.124,4.124,0,0,0,699.566,263.208Z" transform="translate(-692.721 -260.482)" fill="#7339ee"/>
      </g>
      <g id="Grupo_2256" data-name="Grupo 2256" transform="translate(0 13.644)">
        <path id="Trazado_3207" data-name="Trazado 3207" d="M700.551,328.5a2.939,2.939,0,0,1-1.449-.372c-2.547-1.292-1.928-3.42-1.431-5.131l.086-.295,2.787-7.892a2.833,2.833,0,0,0-.073-.736l-1.726-2.669-.237,2.951a5.782,5.782,0,0,1-.532,1.96l-4.451,9.2c-1.2,2.331-2.7,2.813-3.744,2.813a3.353,3.353,0,0,1-1.641-.431,3.412,3.412,0,0,1-1.825-1.935,4.412,4.412,0,0,1,.448-3.48l4.195-8.47a2.7,2.7,0,0,0,.3-1.021l.42-6.469a4.615,4.615,0,0,1-.235-1.853V286.887A5.445,5.445,0,0,1,702,285.047l4.819,4.819h10.021a3.671,3.671,0,0,1,.009,7.342h-12.5a1.363,1.363,0,0,1-.964-.4l-1.054-1.054v5.678a5.337,5.337,0,0,1-.169,1.332l5.387,9.451a1.323,1.323,0,0,1,.116.266,5.274,5.274,0,0,1,.221,2.055,1.384,1.384,0,0,1-.06.3l-3.208,9.958c-.012.037-.025.073-.04.109C703.331,327.875,701.7,328.5,700.551,328.5Zm-.071-2.73c.01,0,.037,0,.07,0h0c.259,0,.862-.4,1.491-1.871l3.136-9.741a2.552,2.552,0,0,0-.078-.736l-5.607-9.836a1.359,1.359,0,0,1-.073-1.2,2.5,2.5,0,0,0,.183-.953v-8.969a1.363,1.363,0,0,1,2.327-.964l2.982,2.981H716.85a.923.923,0,0,0,.917-.927.934.934,0,0,0-.927-.964H706.255a1.363,1.363,0,0,1-.964-.4l-5.452-5.452a1.36,1.36,0,0,1-.35-.6,2.659,2.659,0,0,0-2.557-1.938,2.7,2.7,0,0,0-2.763,2.681v17.784c0,.778,0,.786.111,1a1.374,1.374,0,0,1,.14.7l-.444,6.83a5.4,5.4,0,0,1-.587,2.049L689.2,323.7a2.093,2.093,0,0,0-.316,1.358.8.8,0,0,0,.461.4,1.528,1.528,0,0,1,.188.1.789.789,0,0,0,.246.046c.4,0,.878-.476,1.3-1.305l4.428-9.156a3.089,3.089,0,0,0,.278-1.016l.481-6a1.685,1.685,0,0,1,3.094-.785l3.507,5.424a1.343,1.343,0,0,1,.159.342,5.539,5.539,0,0,1,.22,2.085,1.346,1.346,0,0,1-.073.339l-2.89,8.222c-.487,1.674-.476,1.68.073,1.952.09.044.066.016.116.059Z" transform="translate(-686.129 -281.48)" fill="#7339ee"/>
      </g>
    </g>
  </g>
</svg>
