<svg xmlns="http://www.w3.org/2000/svg" width="52.77" height="73.886" viewBox="0 0 52.77 73.886">
  <g id="ICON_2_HEADER_HOME" transform="translate(0 0)">
    <path id="Trazado_4088" data-name="Trazado 4088" d="M688.327,129.941Zm0,0" transform="translate(-679.995 -76.977)" fill="#8556ee"/>
    <g id="Grupo_4077" data-name="Grupo 4077" transform="translate(0 0)">
      <path id="Trazado_4089" data-name="Trazado 4089" d="M688.327,129.942Zm0,0" transform="translate(-679.995 -76.979)" fill="#8556ee"/>
      <path id="Trazado_4090" data-name="Trazado 4090" d="M732.016,131.3l-.645-3.237a1.082,1.082,0,0,0-2.123.422l.644,3.237a1.975,1.975,0,0,1-1.936,2.361h-6.3v-4.915a1.083,1.083,0,1,0-2.165,0v4.915h-9.3l-1.4-10.857.724-2.129c.452.249,1.317,1.365,2.759.927a2.214,2.214,0,0,0,1.444-1.378l2.07-5.8,7.813,2.3,0-.009c.151.055.318.1.8.245a5.3,5.3,0,0,1,3.429,4.008l.425,2.132a1.082,1.082,0,0,0,2.123-.422l-.424-2.132a7.411,7.411,0,0,0-4.83-5.625c-.069-.025.559.163-9.548-2.82l-2.976-2.012v-1.891a14.836,14.836,0,0,0,7.541-9.574,3.01,3.01,0,0,0,1.341.315,3.047,3.047,0,0,0,2.979-2.424,6.079,6.079,0,0,0,2.026-8.877v-4.95a20.776,20.776,0,0,0-20.754-20.755,20.4,20.4,0,0,0-12.651,4.357,1.083,1.083,0,0,0,1.332,1.708,18.246,18.246,0,0,1,11.319-3.9,18.613,18.613,0,0,1,18.59,18.591v2.7a3.055,3.055,0,0,0-1.759-1.759v-.943a16.832,16.832,0,1,0-33.664,0v.943a3.052,3.052,0,0,0-1.759,1.759V83.329a18.754,18.754,0,0,1,3.907-11.516,1.082,1.082,0,1,0-1.717-1.317,20.9,20.9,0,0,0-4.356,12.833v4.734a6.078,6.078,0,0,0,2.026,8.877,3.054,3.054,0,0,0,2,2.259,7.567,7.567,0,0,0,1.961,3.642,8.849,8.849,0,0,0,3.549,2.231,15.051,15.051,0,0,0,4.317,3.49v1.969l-2.931,1.982c-8.616,2.54-9.492,2.8-9.521,2.809v0l-.07.027,0-.006a7.412,7.412,0,0,0-4.83,5.627l-2.071,10.435a4.048,4.048,0,0,0,3.971,4.838h10.446a1.082,1.082,0,1,0,0-2.164h-1.836v-4.915a1.082,1.082,0,1,0-2.165,0v4.915h-6.445a1.884,1.884,0,0,1-1.849-2.251l2.072-10.435a5.3,5.3,0,0,1,3.429-4.008l8.641-2.549c.49,1.374,1.591,4.461,2.071,5.805a2.194,2.194,0,0,0,1.446,1.378c1.269.386,1.951-.364,2.766-.933l.729,2.155-1.4,10.837h-2.408a1.082,1.082,0,1,0,0,2.164h29.081a4.14,4.14,0,0,0,4.06-4.948Zm-7.483-42.225c.022.03.045.06.07.087a3.911,3.911,0,0,1-.07,4.991Zm-37.658.087c.024-.027.049-.057.071-.087v5.078a3.91,3.91,0,0,1-.071-4.991Zm3.994,7.163a.879.879,0,1,1-1.758,0V86.9a.879.879,0,1,1,1.758,0Zm22.944,17.622c-.192.54-1.9,5.321-2.131,5.973a.055.055,0,0,1-.085.025l-1.976-1.466,2.477-5.692Zm6.8-27.045a.879.879,0,1,1,1.758,0V96.32a.879.879,0,1,1-1.758,0ZM691.213,99.1c.056-.024.11-.05.164-.078.121.472.267.937.433,1.394a5.259,5.259,0,0,1-.6-1.317Zm1.679-14.483a2.565,2.565,0,0,0-.707.172,3.049,3.049,0,0,0-1.114-.738v-.943a14.668,14.668,0,1,1,29.335,0v.943a3.032,3.032,0,0,0-.75.416.235.235,0,0,0-.022-.02.556.556,0,0,0-.056-.047l-4.669-3.635a3.6,3.6,0,0,0-3.577-.571c-3.2,1.234-11.377,4.137-18.329,4.413a1.021,1.021,0,0,0-.111.01Zm5.352,21h3.171a3.047,3.047,0,0,0,2.842,1.962h2.749a3.045,3.045,0,0,0,0-6.089h-2.749a3.047,3.047,0,0,0-2.842,1.962h-3.534a8.359,8.359,0,0,1-2.1-.266,13.024,13.024,0,0,1-2.719-7.939V86.787a.4.4,0,0,1,.063-.011l.073-.005c7.252-.313,15.639-3.285,18.92-4.554a1.462,1.462,0,0,1,1.465.26l4.621,3.6a1.147,1.147,0,0,1,.221.7v8.671a12.663,12.663,0,0,1-12.786,12.681,12.452,12.452,0,0,1-7.392-2.506Zm5.133-1.082a.881.881,0,0,1,.88-.88h2.749a.88.88,0,0,1,0,1.759h-2.749a.881.881,0,0,1-.88-.879Zm-3.511,15.4a.055.055,0,0,1-.085-.025c-.517-1.448-1.651-4.628-2.132-5.973l1.722-1.164c4.18,9.457-.12-.288,2.481,5.688ZM701,110.81Zm.024.058L701,110.81v-1.3a14.589,14.589,0,0,0,4.744.788,14.983,14.983,0,0,0,4.7-.757v1.331l-2.878,6.879H703.91l-2.89-6.881Zm6.612,9.046-.72,2.116h-2.354l-.716-2.116Zm-4.166,14.166,1.276-9.885h1.994l1.276,9.885Zm0,0" transform="translate(-679.327 -62.358)" fill="#8556ee"/>
    </g>
  </g>
</svg>
