<svg xmlns="http://www.w3.org/2000/svg" width="73.837" height="65.153" viewBox="0 0 73.837 65.153">
  <g id="ICON_3_HEADER_HOME" transform="translate(0)">
    <g id="Grupo_4079" data-name="Grupo 4079" transform="translate(0 0)">
      <path id="Trazado_4091" data-name="Trazado 4091" d="M626.78,90.376H592.457a1.082,1.082,0,0,0,0,2.163H626.78a1.082,1.082,0,1,0,0-2.163Zm0,0" transform="translate(-562.669 -67.154)" fill="#8556ee"/>
      <path id="Trazado_4092" data-name="Trazado 4092" d="M626.78,101.5H592.457a1.082,1.082,0,0,0,0,2.163H626.78a1.082,1.082,0,1,0,0-2.163Zm0,0" transform="translate(-562.669 -70.011)" fill="#8556ee"/>
      <path id="Trazado_4093" data-name="Trazado 4093" d="M626.78,112.628H592.457a1.082,1.082,0,0,0,0,2.163H626.78a1.082,1.082,0,1,0,0-2.163Zm0,0" transform="translate(-562.669 -72.869)" fill="#8556ee"/>
      <path id="Trazado_4094" data-name="Trazado 4094" d="M627.227,77.647H586.033a6.3,6.3,0,0,0-6.291,6.291v25.9a6.3,6.3,0,0,0,6.291,6.291h28.872a1,1,0,0,1,.788.38l9.324,11.8a1.856,1.856,0,0,0,1.464.719,1.927,1.927,0,0,0,.63-.108,1.86,1.86,0,0,0,1.265-1.778V116.025a6.321,6.321,0,0,0,5.141-6.184v-25.9a6.3,6.3,0,0,0-6.291-6.291Zm4.127,32.194a4.142,4.142,0,0,1-4.074,4.126,1.082,1.082,0,0,0-1.068,1.081v11.293l-8.822-11.169a3.149,3.149,0,0,0-2.485-1.2H586.033a4.133,4.133,0,0,1-4.128-4.128v-25.9a4.133,4.133,0,0,1,4.128-4.128h41.194a4.132,4.132,0,0,1,4.127,4.128Zm0,0" transform="translate(-559.681 -63.884)" fill="#8556ee"/>
      <path id="Trazado_4095" data-name="Trazado 4095" d="M568.682,90.775a2.88,2.88,0,0,0-1.866,1.072l-7.43,9.407V91.826a1.082,1.082,0,0,0-1.067-1.082,3.464,3.464,0,0,1-3.409-3.451V64.744a3.457,3.457,0,0,1,3.453-3.453h35.861a3.457,3.457,0,0,1,3.453,3.453v4.173a1.082,1.082,0,0,0,2.163,0V64.744a5.623,5.623,0,0,0-5.616-5.617H558.363a5.623,5.623,0,0,0-5.616,5.617V87.293a5.643,5.643,0,0,0,4.476,5.5v9.571a1.759,1.759,0,0,0,1.195,1.68,1.812,1.812,0,0,0,.6.1,1.756,1.756,0,0,0,1.384-.678l8.117-10.277a.734.734,0,0,1,.473-.271,1.081,1.081,0,1,0-.3-2.141Zm0,0" transform="translate(-552.747 -59.127)" fill="#8556ee"/>
    </g>
  </g>
</svg>
