<svg xmlns="http://www.w3.org/2000/svg" width="44.465" height="42.386" viewBox="0 0 44.465 42.386">
  <g id="MSG_ICON" transform="translate(-74.949 -185.687)">
    <path id="Trazado_3178" data-name="Trazado 3178" d="M78.519,212.12a.7.7,0,0,1-.666-.895l1.334-4.472a5.155,5.155,0,0,1-4.238-5.066V190.834a5.153,5.153,0,0,1,5.147-5.147H99.013a5.153,5.153,0,0,1,5.147,5.147v10.853a5.153,5.153,0,0,1-5.147,5.147H87.444l-8.564,5.185A.7.7,0,0,1,78.519,212.12ZM80.1,187.078a3.76,3.76,0,0,0-3.756,3.756v10.853a3.76,3.76,0,0,0,3.756,3.756.695.695,0,0,1,.666.894L79.7,209.9l7.188-4.353a.705.705,0,0,1,.36-.1H99.013a3.76,3.76,0,0,0,3.756-3.756V190.834a3.76,3.76,0,0,0-3.756-3.756Z" fill="#fff"/>
    <path id="Trazado_3179" data-name="Trazado 3179" d="M89.555,199.044a2.6,2.6,0,1,1,2.6-2.6A2.6,2.6,0,0,1,89.555,199.044Zm0-3.8a1.205,1.205,0,1,0,1.205,1.205A1.207,1.207,0,0,0,89.555,195.243Z" fill="#fff"/>
    <path id="Trazado_3180" data-name="Trazado 3180" d="M96.845,199.044a2.6,2.6,0,1,1,2.6-2.6A2.6,2.6,0,0,1,96.845,199.044Zm0-3.8a1.205,1.205,0,1,0,1.205,1.205A1.206,1.206,0,0,0,96.845,195.243Z" fill="#fff"/>
    <path id="Trazado_3181" data-name="Trazado 3181" d="M82.264,199.044a2.6,2.6,0,1,1,2.6-2.6A2.6,2.6,0,0,1,82.264,199.044Zm0-3.8a1.205,1.205,0,1,0,1.206,1.205A1.207,1.207,0,0,0,82.264,195.243Z" fill="#fff"/>
    <path id="Trazado_3182" data-name="Trazado 3182" d="M115.844,228.073a.7.7,0,0,1-.36-.1l-8.564-5.185H95.35a5.152,5.152,0,0,1-5.146-5.147V208.9a.7.7,0,1,1,1.391,0v8.744A3.759,3.759,0,0,0,95.35,221.4h11.764a.69.69,0,0,1,.36.1l7.188,4.352-1.061-3.558a.695.695,0,0,1,.666-.894,3.76,3.76,0,0,0,3.756-3.756V206.788a3.76,3.76,0,0,0-3.756-3.756h-8.044a.7.7,0,1,1,0-1.391h8.044a5.153,5.153,0,0,1,5.147,5.147v10.853a5.155,5.155,0,0,1-4.237,5.066l1.333,4.472a.695.695,0,0,1-.666.894Z" fill="#fff"/>
    <path id="Trazado_3183" data-name="Trazado 3183" d="M104.809,215a2.6,2.6,0,1,1,2.6-2.6A2.6,2.6,0,0,1,104.809,215Zm0-3.8a1.205,1.205,0,1,0,1.205,1.206A1.207,1.207,0,0,0,104.809,211.2Z" fill="#fff"/>
    <path id="Trazado_3184" data-name="Trazado 3184" d="M97.518,215a2.6,2.6,0,1,1,2.6-2.6A2.6,2.6,0,0,1,97.518,215Zm0-3.8a1.205,1.205,0,1,0,1.206,1.206A1.207,1.207,0,0,0,97.518,211.2Z" fill="#fff"/>
    <path id="Trazado_3185" data-name="Trazado 3185" d="M112.1,215a2.6,2.6,0,1,1,2.6-2.6A2.6,2.6,0,0,1,112.1,215Zm0-3.8a1.205,1.205,0,1,0,1.206,1.206A1.206,1.206,0,0,0,112.1,211.2Z" fill="#fff"/>
  </g>
</svg>
