<svg xmlns="http://www.w3.org/2000/svg" width="36.783" height="42" viewBox="0 0 36.783 42">
  <g id="BELL_ICON_01" transform="translate(-315 -490)">
    <path id="Trazado_3195" data-name="Trazado 3195" d="M350.783,527.043H316v-2.609s2.71-2.518,3.478-3.478c3.478-4.348,3.478-8.668,3.478-13.553v-2.969A10.435,10.435,0,0,1,333.391,494h0a10.435,10.435,0,0,1,10.435,10.435V507.4c0,4.885,0,9.205,3.478,13.553.768.96,3.478,3.478,3.478,3.478Z" transform="translate(0 -0.391)" fill="none" stroke="#878787" stroke-linecap="round" stroke-linejoin="round" stroke-width="2"/>
    <path id="Trazado_3196" data-name="Trazado 3196" d="M339.7,532a4.348,4.348,0,1,1-8.7,0" transform="translate(-1.957 -5.348)" fill="none" stroke="#878787" stroke-linecap="round" stroke-linejoin="round" stroke-width="2"/>
    <line id="Línea_33" data-name="Línea 33" y1="3" transform="translate(334 491)" fill="none" stroke="#878787" stroke-linecap="round" stroke-linejoin="round" stroke-width="2"/>
  </g>
</svg>
